<?xml version="1.0" standalone="no"?>
<!DOCTYPE svg PUBLIC "-//W3C//DTD SVG 1.1//EN" "http://www.w3.org/Graphics/SVG/1.1/DTD/svg11.dtd" >
<svg xmlns="http://www.w3.org/2000/svg" xmlns:xlink="http://www.w3.org/1999/xlink" version="1.1">
<metadata>
Created by FontForge 20170910 at Fri Jun 30 03:48:40 2017
 By Jimmy Wärting
Diwan Software Ltd. 1987-2012 all rights reserved.
</metadata>
<defs>
<font id=".DamascusPUABold" horiz-adv-x="725" >
  <font-face 
    font-family=".Damascus PUA"
    font-weight="700"
    font-stretch="normal"
    units-per-em="2048"
    panose-1="0 0 4 0 0 0 0 0 0 0"
    ascent="1188"
    descent="-860"
    bbox="-252 -1236 2785 1974"
    underline-thickness="100"
    underline-position="-250"
    unicode-range="U+0020-E190"
  />
    <missing-glyph />
    <glyph glyph-name="u064c_u0651.shaddaDammatan" unicode="&#xe051;&#xe04c;" horiz-adv-x="0" 
d="M412 1686l-11 -84l-77 24q-53 -45 -105 -78q-74 -46 -174 -84l-31 64q2 -1 4 -1q10 0 45 23q43 29 43 64q0 39 -26 39q-11 0 -34.5 -9.5t-27.5 -17.5l-16 39q55 55 109 55q53 0 51 -78q-1 -41 -6 -47q19 4 53 25q21 13 53 45q-49 45 -49 109q0 62 66 120q46 41 77 41
q54 0 54 -96q0 -92 -41 -137zM377 1452q0 -219 -94 -219q-15 0 -42 12t-36 12q-6 0 -10 -2q-15 -24 -35 -57q-36 -56 -78 -57q-59 -3 -59 104v88l49 27q2 -84 41 -84q14 0 32 12q27 18 13 113l59 35q-2 -7 -2 -15q0 -19 13 -46q20 -38 51 -38q40 0 40 100q0 17 -2 38l58 38
q2 -28 2 -61zM354 1796q-4 45 -35 45q-49 0 -49 -49q0 -25 23 -51q17 -20 24 -19q16 4 28 32q11 25 9 42z" />
    <glyph glyph-name="u064d_u0651.shaddaKasratan" unicode="&#xe051;&#xe04d;" horiz-adv-x="0" 
d="M375 1878q0 -188 -74 -215q-11 -4 -20 -4q-17 0 -47 14q-20 10 -33 10q-5 0 -8 -2q-15 -24 -35 -57q-36 -56 -78 -57q-60 -3 -60 102v90l50 27q2 -86 41 -86q14 0 32 12q27 18 13 115l59 33q-2 -5 -2 -12q0 -17 13 -45q20 -40 50 -40q41 0 41 100q0 17 -2 38l58 38
q2 -28 2 -61zM350 1493l-313 -160v74l313 158v-72zM350 1335l-313 -155v71l313 150v-66z" />
    <glyph glyph-name="u064e_u0651.shaddaFatha" unicode="&#xe051;&#xe04e;" horiz-adv-x="0" 
d="M350 1636l-313 -178v76l313 174v-72zM375 1503q0 -190 -74 -215q-12 -4 -20 -4q-14 0 -48 14q-30 12 -40 9q-12 -21 -35 -60q-34 -55 -78 -57q-60 -2 -60 104v88l50 27q2 -84 41 -84q14 0 32 12q27 19 13 113l59 35q-2 -5 -2 -13q0 -16 12 -45q19 -41 51 -41q48 0 39 140
l58 39q2 -29 2 -62z" />
    <glyph glyph-name="u064f_u0651.shaddaDamma" unicode="&#xe051;&#xe04f;" horiz-adv-x="0" 
d="M385 1663l-16 -86l-109 39q-40 -40 -113 -98q-44 -36 -124 -70l-25 63q16 7 92 56q35 18 98 86q-14 7 -36 35q-30 35 -31 67q-3 55 47 119q56 72 125 72q80 0 80 -76q0 -33 -19 -95q-21 -70 -43 -79zM375 1485q0 -190 -74 -215q-12 -4 -20 -4q-14 0 -48 13q-30 13 -40 9
q-12 -20 -35 -59q-33 -56 -78 -58q-60 -2 -60 105v88l50 29q0 -86 41 -86q14 0 32 12q27 18 13 113l59 34q-2 -4 -2 -11q0 -17 13 -45q20 -40 50 -40q41 0 41 100q0 17 -2 37l58 39q2 -28 2 -61zM307 1847q0 35 -33 35q-50 0 -63 -43q-6 -20 -6 -43q0 -65 45 -76
q9 -4 33 46.5t24 80.5z" />
    <glyph glyph-name="u0650_u0651.shaddaKasra" unicode="&#xe051;&#xe050;" horiz-adv-x="0" 
d="M375 1718q0 -190 -74 -215q-12 -4 -20 -4q-14 0 -48 14q-30 12 -40 9q-12 -21 -35 -60q-34 -55 -78 -57q-60 -2 -60 104v88l50 27q2 -84 41 -84q14 0 32 12q27 19 13 113l59 35q-2 -5 -2 -13q0 -16 12 -45q19 -40 51 -40q48 0 39 139l58 39q2 -29 2 -62zM352 1319
l-313 -178v76l313 176v-74z" />
    <glyph glyph-name="NULL" horiz-adv-x="0" 
 />
    <glyph glyph-name="nonmarkingreturn" horiz-adv-x="530" 
 />
    <glyph glyph-name="space" unicode=" " horiz-adv-x="530" 
 />
    <glyph glyph-name="nonbreakingspace" unicode="&#xa0;" horiz-adv-x="950" 
 />
    <glyph glyph-name="u0656.subscriptAlef" unicode="&#xe056;" horiz-adv-x="0" 
d="M96 -681l-57 -55v333l57 47v-325z" />
    <glyph glyph-name="u0659.zwarakay" unicode="&#xe059;" horiz-adv-x="0" 
d="M562 1365h-482l81 81h474z" />
    <glyph glyph-name="period" unicode="." horiz-adv-x="496" 
d="M311 109q0 -46 -31.5 -77.5t-76.5 -31.5t-77 32t-32 77q0 44 32 76t77 32t76.5 -31.5t31.5 -76.5z" />
    <glyph glyph-name="u060c.comma" unicode="&#xe00c;" horiz-adv-x="496" 
d="M391 385l-127 -123q-28 -36 -28 -82q118 -59 118 -137q0 -42 -43 -84q-33 -33 -78 -33q-52 0 -88 41q-41 47 -41 123q0 48 17 103q22 74 127 176q43 42 104 88z" />
    <glyph glyph-name="u061b.semicolon" unicode="&#xe01b;" horiz-adv-x="496" 
d="M438 944q-7 -5 -61 -55q-104 -97 -137 -172q-7 -14 -25 -66q150 -63 150 -143q0 -43 -35 -89t-86 -46q-52 0 -88 43q-43 51 -43 131q0 53 20 121q25 81 154 204q64 62 123 105zM373 109q0 -46 -31.5 -77.5t-77.5 -31.5q-44 0 -76 32t-32 77q0 44 32 76t76 32
q46 0 77.5 -31.5t31.5 -76.5z" />
    <glyph glyph-name="u061f.question" unicode="&#xe01f;" horiz-adv-x="594" 
d="M518 776q0 -85 -58 -85q-63 0 -63 44q0 15 14.5 49.5t14.5 51.5q0 45 -72 65q-14 4 -32 4q-70 0 -115 -69q-39 -60 -39 -134q0 -132 124 -172q40 -12 73 -12q20 0 36 4v-276h-51v168q-99 -2 -174 51q-90 64 -92 184q-6 287 244 287q95 0 147 -53q43 -44 43 -107zM444 74
q0 -74 -73 -74q-72 0 -72 74q0 73 72 73q73 0 73 -73z" />
    <glyph glyph-name="u0640.tatweel" unicode="&#xe040;" horiz-adv-x="340" 
d="M385 0h-385v250h385v-250z" />
    <glyph glyph-name="u066a.percent" unicode="&#xe06a;" horiz-adv-x="891" 
d="M307 971q0 -41 -28 -71t-68 -30q-41 0 -70.5 30t-29.5 71t29.5 71.5t70.5 30.5q40 0 68 -31t28 -71zM848 1159l-705 -1284h-84l711 1284h78zM860 106q0 -41 -28.5 -70.5t-69.5 -29.5t-69.5 29.5t-28.5 70.5t29 72t69 31t69 -31t29 -72z" />
    <glyph glyph-name="u066b.decimalSeparator" unicode="&#xe06b;" horiz-adv-x="891" 
d="M637 63q0 -40 -12 -86q-31 -111 -142 -208q-49 -44 -104 -76l-25 55q85 43 129 108t62 109q-50 8 -93 45q-46 41 -46 88q0 31 20 62q33 49 92 49q58 0 90 -45q29 -41 29 -101z" />
    <glyph glyph-name="u066c.thousandsSeparator" unicode="&#xe06c;" horiz-adv-x="891" 
d="M543 59q0 -91 -82 -161q-18 -16 -58 -39l-18 30q33 19 68 54q39 51 34 57q-69 23 -69 61q0 21 13 47.5t48 26.5q64 0 64 -76z" />
    <glyph glyph-name="u066d.asterisk" unicode="&#xe06d;" horiz-adv-x="838" 
d="M766 522q0 -43 -115.5 -81t-115.5 -58q0 -17 112.5 -60.5t112.5 -91.5q0 -13 -6 -28q-17 -43 -49 -43q-34 0 -123 73q-83 69 -103 62q-10 -4 -10 -27q0 -28 11.5 -87t11.5 -89q0 -76 -58 -76q-65 0 -65 74q0 29 12 86t12 86q0 39 -20 39q-13 0 -93 -63.5t-118 -63.5
q-24 0 -44 19t-20 43q0 41 119 89t119 62q-2 18 -113.5 63t-111.5 87q0 15 14 36q21 31 51 31q39 0 117.5 -66.5t87.5 -66.5q18 0 18 35q0 29 -11 86.5t-11 87.5q0 72 59 72q60 0 60 -78q0 -29 -10.5 -86t-10.5 -84q0 -31 14 -39q12 -7 96 57q89 68 124 68q31 0 47 -31
q10 -20 10 -37zM502 385q0 68 -68 68q-67 0 -67 -68t67 -68q68 0 68 68z" />
    <glyph glyph-name="u0660.zero" unicode="&#xe060;" horiz-adv-x="950" 
d="M639 555l-88 -334l-254 180l90 330z" />
    <glyph glyph-name="u0661.one" unicode="&#xe061;" horiz-adv-x="950" 
d="M670 186q0 -266 -64 -266q-34 0 -53 156q-27 222 -76 354q-78 213 -201 418q2 33 41 152q41 123 58 128q19 7 76 -88q64 -108 120 -276q69 -206 93 -445q6 -62 6 -133z" />
    <glyph glyph-name="u0662.two" unicode="&#xe062;" horiz-adv-x="950" 
d="M807 1024q0 -92 -25 -190q-29 -117 -77 -156q-79 -64 -164 -76q45 -115 63 -287q12 -116 12 -209q0 -200 -51 -200q-37 0 -57 127q-33 206 -86 348q-109 291 -189 410q-28 38 -86 114q8 22 27 60q38 75 84 131q2 2 6 2q31 0 166 -174q41 -11 166 6q58 7 117.5 87t77.5 81
q16 1 16 -74z" />
    <glyph glyph-name="u0663.three" unicode="&#xe063;" horiz-adv-x="950" 
d="M930 989q0 -93 -43 -198q-49 -119 -115 -140q-20 -6 -43 -6q-53 0 -127 35q-61 29 -65 25q-66 -64 -125 -91q-23 -6 -47 -14q63 -214 63 -461q0 -237 -59 -237q-43 0 -58 139q-22 210 -69 342q-92 253 -154 360q-25 39 -74 115q36 114 107 191q-3 -3 94 -95
q104 -98 166 -98q19 0 33 8q72 42 133 144q51 84 65 84q27 -2 34 -36q2 -31 5 -61.5t45 -53.5q38 -21 72 -21q37 0 53 24q12 18 35 70q13 29 35 39q6 2 12 2q27 0 27 -66z" />
    <glyph glyph-name="u0664.four" unicode="&#xe064;" horiz-adv-x="950" 
d="M758 172l-84 -242q-16 -9 -125 15q-122 26 -213 73q-115 60 -117 134q-2 70 94 200q36 47 105 140q4 15 -72 63q-90 57 -129 107q-10 12 -10 40q0 66 35 132q86 163 231 258q88 57 137 65l-32 -172q-13 0 -78 -49q-76 -57 -76 -90q0 -25 112 -81.5t113.5 -64.5t1.5 -22
q0 -69 -78 -160q-33 -33 -96 -102q-67 -79 -67 -109q0 -8 6 -12q52 -36 200 -84q140 -45 142 -39z" />
    <glyph glyph-name="u0665.five" unicode="&#xe065;" horiz-adv-x="950" 
d="M831 643q0 -78 -26 -192q-31 -136 -74 -170q-148 -119 -315 -119q-128 0 -207 88q-51 57 -51 158q0 144 108 338q120 215 250 225q102 7 192 -83q75 -75 115 -183q8 -23 8 -62zM702 494q4 3 4 8q0 28 -85 106q-110 101 -195 97q-31 -2 -72 -48q-47 -52 -47 -114
q0 -16 2 -27q16 -86 191 -86q137 0 202 64z" />
    <glyph glyph-name="u0666.six" unicode="&#xe066;" horiz-adv-x="950" 
d="M815 213q6 -35 -28 -146.5t-46 -111.5q-35 0 -108 129q-90 159 -98 346q-11 232 12 309q-86 -22 -185 -22q-194 0 -256 108q-12 22 -12 74q0 117 60 186l86 -51q87 -41 194 -45q76 -2 166 21q72 18 74 16q-3 -15 -19 -92q-22 -114 -22 -215q0 -284 182 -506z" />
    <glyph glyph-name="u0667.seven" unicode="&#xe067;" horiz-adv-x="950" 
d="M913 890q-39 -52 -79 -103q-90 -136 -179 -366q-40 -104 -106 -330q-41 -139 -66 -139q-31 0 -63 120q-50 190 -115 330q-100 218 -188 330q-12 15 -86 96q60 190 100 242q2 1 4 1q15 0 66 -69q64 -87 121 -207q41 -87 116 -280q55 -141 74 -193q74 244 184 502
q41 97 117 199q63 84 70 77q16 -12 26 -110q7 -62 7 -85q0 -14 -3 -15z" />
    <glyph glyph-name="u0668.eight" unicode="&#xe068;" horiz-adv-x="950" 
d="M918 199q-57 -195 -97 -248q-1 -2 -3 -2q-11 0 -62 74q-81 115 -121 208q-87 203 -184 463q-76 -219 -189 -487q-43 -102 -117 -207q-63 -90 -71 -86q-17 12 -25 124q-5 74 -5 101q0 13 1 15q39 47 78 92q87 124 174 354q15 41 111 328q44 135 69 135q33 0 64 -113
q51 -191 112 -323q95 -206 185 -332q41 -47 80 -96z" />
    <glyph glyph-name="u0669.nine" unicode="&#xe069;" horiz-adv-x="950" 
d="M827 164q2 -8 2 -18q0 -44 -28 -144q-35 -123 -45 -119q-30 4 -88 117q-83 158 -127 430q-2 9 -52 10q-79 3 -122 11q-80 13 -142 54q-78 49 -88 118q-2 14 -2 36q0 124 105 303q116 198 229 187q191 -19 205 -483q4 -156 45 -287q30 -98 69 -162q21 -27 39 -53zM517 711
q0 20 -23 87q-33 90 -88 99q-25 4 -63.5 -45t-31.5 -70q7 -20 86 -52q74 -30 103 -30q17 0 17 11z" />
    <glyph glyph-name="u0644_u0645.initial.lamMeem" horiz-adv-x="815" 
d="M797 80q9 -53 -37 -139q-34 -63 -58 -86q-80 106 -137 149q-51 39 -125 57q-50 -14 -188 -45q-74 -16 -207 -16h-45v250h84q66 0 149 8q41 4 78 23l-67 712q80 99 174 193q10 -2 12 -96q2 -97 11 -120q16 -40 85 -73q54 -25 54 -39q0 -4 -2 -8l-121 -180l8 -219
q3 -85 84 -155q75 -56 149 -112q94 -80 99 -104z" />
    <glyph glyph-name="u0646_u0646.final.noonNoon" horiz-adv-x="1516" 
d="M1159 1092l-74 -164l-188 82l68 161zM575 813l-104 -186l-227 123l102 182zM1561 0h-168q-72 0 -119 41q-28 24 -80 233l-45 181q-3 10 -6 12q-6 -14 -35 -84q-38 -90 -90 -115q-9 -4 -39 -4q6 -25 -12 -139q-26 -160 -73 -244q-58 -104 -183 -174q-144 -80 -295 -80
q-220 0 -344 172q-64 88 -64 219q0 155 78 322q65 140 93 140q9 0 9 -9q0 -19 -37.5 -130t-37.5 -175q0 -102 61 -166q105 -109 287 -109q136 0 278 56q124 48 131 82q2 7 2 16q0 46 -60.5 170t-94.5 150l88 225q94 -94 168 -94q90 0 127 65q9 16 35 115q23 88 34 92
q35 10 84 -328q16 -107 33 -136q30 -54 117 -54h158v-250z" />
    <glyph glyph-name="u064a_u0646.final.yehNoon" horiz-adv-x="1516" 
d="M575 813l-104 -186l-227 123l102 182zM1561 0h-168q-72 0 -119 41q-28 24 -80 233l-45 181q-3 10 -6 12q-6 -14 -35 -84q-38 -90 -90 -115q-9 -4 -39 -4q6 -25 -12 -139q-26 -160 -73 -244q-58 -104 -183 -174q-144 -80 -295 -80q-220 0 -344 172q-64 88 -64 219
q0 155 78 322q65 140 93 140q9 0 9 -9q0 -19 -37.5 -130t-37.5 -175q0 -102 61 -166q105 -109 287 -109q136 0 278 56q124 48 131 82q2 7 2 16q0 46 -60.5 170t-94.5 150l88 225q94 -94 168 -94q90 0 127 65q9 16 35 115q23 88 34 92q35 10 84 -328q16 -107 33 -136
q30 -54 117 -54h158v-250zM1346 -479l-115 -174l-197 116l-104 -147l-178 121l127 170l182 -121l100 141z" />
    <glyph glyph-name="u0628_u0646.final.behNoon" horiz-adv-x="1516" 
d="M575 813l-104 -186l-227 123l102 182zM1561 0h-168q-72 0 -119 41q-28 24 -80 233l-45 181q-3 10 -6 12q-6 -14 -35 -84q-38 -90 -90 -115q-9 -4 -39 -4q6 -25 -12 -139q-26 -160 -73 -244q-58 -104 -183 -174q-144 -80 -295 -80q-220 0 -344 172q-64 88 -64 219
q0 155 78 322q65 140 93 140q9 0 9 -9q0 -19 -37.5 -130t-37.5 -175q0 -102 61 -166q105 -109 287 -109q136 0 278 56q124 48 131 82q2 7 2 16q0 46 -60.5 170t-94.5 150l88 225q94 -94 168 -94q90 0 127 65q9 16 35 115q23 88 34 92q35 10 84 -328q16 -107 33 -136
q30 -54 117 -54h158v-250zM1430 -403l-72 -162l-191 82l68 161z" />
    <glyph glyph-name="u062a_u0646.final.tehNoon" horiz-adv-x="1516" 
d="M1432 995l-111 -131l-143 123l-103 -123l-149 127l110 131l144 -118l100 120zM575 813l-104 -186l-227 123l102 182zM1561 0h-168q-72 0 -119 41q-28 24 -80 233l-45 181q-3 10 -6 12q-6 -14 -35 -84q-38 -90 -90 -115q-9 -4 -39 -4q6 -25 -12 -139q-26 -160 -73 -244
q-58 -104 -183 -174q-144 -80 -295 -80q-220 0 -344 172q-64 88 -64 219q0 155 78 322q65 140 93 140q9 0 9 -9q0 -19 -37.5 -130t-37.5 -175q0 -102 61 -166q105 -109 287 -109q136 0 278 56q124 48 131 82q2 7 2 16q0 46 -60.5 170t-94.5 150l88 225q94 -94 168 -94
q90 0 127 65q9 16 35 115q23 88 34 92q35 10 84 -328q16 -107 33 -136q30 -54 117 -54h158v-250z" />
    <glyph glyph-name="u0644_u0622.isolated.lamMaddaOnAlef" horiz-adv-x="973" 
d="M453 1174q0 -48 -39 -99q-55 -71 -152 -71q-15 0 -46 4t-46 4q-66 0 -105 -36l-40 -36q-5 2 -5 10q0 44 43 99q55 69 132 69q19 0 58 -6t58 -6q88 0 121 61q12 19 19 17q2 -2 2 -10zM956 940l-139 -178l-35 20q0 -130 -30 -303q-15 -82 -66 -200q39 -153 35 -267
q-6 -153 -33 -170q-35 -22 -264 -45q-222 -22 -225 -18l30 227q134 7 201 78q61 65 148 176q-74 105 -175 193q-65 57 -163 110l-50 -39q-12 5 -79 86q-74 90 -70 123q4 34 45 89q43 59 74 63q82 10 291 -219q40 -44 112 -156q63 -96 70 -113q0 -53 18 61.5t21 164.5
q8 183 -23 399l37 45q46 56 74 107q2 4 6 4q7 0 33 -37q29 -43 59 -82q34 -44 98 -119zM641 27v43q0 108 -31 108q-7 0 -16 -20q-12 -27 -27 -41q-19 -18 -94 -80q-11 -9 -35 -33z" />
    <glyph glyph-name="u0644_u0622.final.lamMaddaOnAlef" horiz-adv-x="1223" 
d="M580 1165q0 -59 -37 -106q-56 -72 -178 -72q-19 0 -56 4t-55 4q-74 0 -131 -45q-41 -32 -51 -37q-6 2 -6 13q0 37 50 97q45 56 84 77q48 27 218 4q55 -8 109.5 34t50.5 42q2 -2 2 -15zM1268 0h-127q-157 0 -223 174q-26 66 -44 158l-14 76q-6 -24 -72 -175
q-108 -250 -210.5 -314t-387.5 -64q-135 0 -139 10q-2 7 92 41q124 44 172 65q119 54 244 135q15 54 15 106q0 58 -19 114q-13 39 -78 118q-58 72 -82 86l-45 -51q-43 29 -88 60q-86 73 -86 159q0 57 41 117q17 25 53 25q98 0 217 -115q134 -128 152 -287q8 -71 0 -262
q40 40 70 90q94 160 94 424v242l-6 100l153 115l13 -572q1 -70 26 -161q21 -77 41 -107q27 -40 70 -51q24 -6 82 -6h86v-250z" />
    <glyph glyph-name="u06b5_u0627.isolated.lamWithSmallVAlef" horiz-adv-x="973" 
d="M956 940l-139 -178l-35 20q0 -130 -30 -303q-15 -82 -66 -200q39 -153 35 -267q-6 -153 -33 -170q-35 -22 -264 -45q-222 -22 -225 -18l30 227q134 7 201 78q61 65 148 176q-74 105 -175 193q-65 57 -163 110l-50 -39q-12 5 -79 86q-74 90 -70 123q4 34 45 89
q43 59 74 63q82 10 291 -219q40 -44 112 -156q63 -96 70 -113q0 -53 18 61.5t21 164.5q8 183 -23 399l37 45q46 56 74 107q2 4 6 4q7 0 33 -37q29 -43 59 -82q34 -44 98 -119zM641 27v43q0 108 -31 108q-7 0 -16 -20q-12 -27 -27 -41q-19 -18 -94 -80q-11 -9 -35 -33z
M627 1185l-218 -235q-22 -22 -55 -22q-32 0 -54 22l-216 234l60 1l210 -144l214 144h59z" />
    <glyph glyph-name="u06b5_u0627.final.lamWithSmallVAlef" horiz-adv-x="1223" 
d="M1268 0h-127q-157 0 -223 174q-26 66 -44 158l-14 76q-6 -24 -72 -175q-108 -250 -210.5 -314t-387.5 -64q-135 0 -139 10q-2 7 92 41q124 44 172 65q119 54 244 135q15 54 15 106q0 58 -19 114q-13 39 -78 118q-58 72 -82 86l-45 -51q-43 29 -88 60q-86 73 -86 159
q0 57 41 117q17 25 53 25q98 0 217 -115q134 -128 152 -287q8 -71 0 -262q40 40 70 90q94 160 94 424v242l-6 100l153 115l13 -572q1 -70 26 -161q21 -77 41 -107q27 -40 70 -51q24 -6 82 -6h86v-250zM721 1167l-218 -235q-22 -22 -55 -22q-32 0 -54 22l-216 234l60 1
l210 -144l214 144h59z" />
    <glyph glyph-name="u0644_u0623.isolated.lamHamzaOnAlef" horiz-adv-x="973" 
d="M373 1014l-31 -70q-93 -18 -164 -37q-51 -14 -108 -43q-49 -24 -58 -24q-4 0 -6.5 1.5t-2.5 4.5q0 12 33 54q40 50 36 54l-29 21q-25 22 -25 49q0 68 83 115q71 41 143 41q59 0 75 -13l-51 -82q-35 11 -69 11q-64 0 -93 -35q-10 -13 -10 -21q0 -23 49 -34q43 -10 62 -9z
M956 940l-139 -178l-35 20q0 -130 -30 -303q-15 -82 -66 -200q39 -153 35 -267q-6 -153 -33 -170q-35 -22 -264 -45q-222 -22 -225 -18l30 227q134 7 201 78q61 65 148 176q-64 97 -175 193q-58 50 -86 67q-32 15 -63 31l-39 -41q-11 0 -74 63q-71 73 -75 117q-3 26 48 89
t79 67q82 12 258 -180q39 -44 112 -156q63 -96 70 -113q0 -53 18 61.5t21 164.5q8 183 -23 399l37 45q46 56 74 107q2 4 6 4q7 0 33 -37q29 -43 59 -82q34 -44 98 -119zM641 27v43q0 108 -31 108q-7 0 -16 -20q-12 -27 -27 -41q-19 -18 -94 -80q-11 -9 -35 -33z" />
    <glyph glyph-name="u0644_u0623.final.lamHamzaOnAlef" horiz-adv-x="1223" 
d="M475 1020l-29 -86q-118 4 -253 -55q-20 -9 -76 -54q-44 -34 -56 -28q-2 0 -2 4q0 9 42 59t40 53q-75 38 -75 82q0 52 69 127q47 52 152 52q63 0 94 -25l-49 -74q-23 10 -82 10q-98 0 -98 -49q0 -19 24.5 -34t44.5 -13zM1268 0h-127q-157 0 -223 174q-26 66 -44 158
l-14 76q-6 -24 -72 -175q-108 -250 -210.5 -314t-387.5 -64q-135 0 -139 10q-2 7 92 41q123 44 172 65q118 52 244 135q29 111 -4 211q-17 51 -76 123q-49 60 -78 80l-61 -41l-74 53q-73 70 -73 148q0 53 38 111q21 30 64 30q95 0 207 -116q121 -127 137 -271q8 -73 0 -258
q40 40 70 90q94 160 94 424v242l-6 100l153 115l13 -572q3 -182 57 -264q40 -61 162 -61h86v-250z" />
    <glyph glyph-name="u0644_u0625.isolated.lamHamzaUnderAlef" horiz-adv-x="973" 
d="M956 940l-139 -178l-35 20q0 -130 -30 -303q-15 -82 -66 -200q39 -153 35 -267q-6 -153 -33 -170q-35 -22 -264 -45q-222 -22 -225 -18l30 227q51 8 74 14q78 22 111 52q122 111 153 186q-113 219 -321 373l-37 -45q-15 0 -105 84q-100 93 -102 135q-2 37 40 129
q44 96 75 100q33 5 137 -102q92 -95 156 -184q33 -47 127 -205q78 -132 90 -156q28 72 41 238q13 174 -19 397l37 45q46 56 74 107q2 4 6 4q7 0 33 -37q29 -43 59 -82q34 -44 98 -119zM365 -508l-33 -70q-82 -12 -162 -34q-55 -16 -109 -43q-48 -25 -57 -25q-4 0 -6.5 1.5
t-3.5 4.5q0 11 33 53q39 52 36 56q-9 6 -28 20q-27 22 -27 49q0 68 83 115q71 41 142 41q60 0 76 -12l-49 -82q-35 10 -70 10q-63 0 -92 -35q-10 -12 -10 -22q0 -22 45 -33q41 -10 64 -8zM639 70q4 17 -1 58q-6 46 -20 46q-11 0 -25.5 -18.5t-33.5 -40.5q-33 -33 -88 -78
q-12 -14 -27 -29l187 27z" />
    <glyph glyph-name="u0644_u0625.final.lamHamzaUnderAlef" horiz-adv-x="1223" 
d="M1268 0h-80q-75 0 -152 55q-54 40 -88 133q-23 66 -39 150q-13 72 -18 72q-6 -10 -84 -160q-90 -172 -174 -232q-93 -65 -412 -65q-117 0 -117 12q0 8 86 33q126 36 197 65q89 37 215 117q16 62 16 152q0 70 -16 104q-50 104 -125 199q-58 73 -90 94l-63 -74
q-158 150 -166 222q-5 43 21 124q29 89 63 101q6 2 13 2q69 0 226 -193q174 -212 193 -360q4 -32 4 -66q0 -92 -19 -243q42 22 74 53q75 73 101 192q9 44 10 201l2 367l131 123l10 -584q3 -162 27 -228q43 -116 172 -116h82v-250zM500 -408l-31 -69q-93 -18 -164 -37
q-51 -14 -108 -43q-49 -25 -58 -25q-4 0 -6.5 2t-2.5 4q0 13 33 55q40 50 36 54q-54 38 -54 72q0 66 82 114q71 41 142 41q61 0 77 -14l-51 -82q-35 10 -69 10q-64 0 -93 -34q-10 -13 -10 -21q0 -22 47 -35q39 -10 62 -8z" />
    <glyph glyph-name="u0644_u0627.isolated.lamAlef" horiz-adv-x="973" 
d="M956 940l-139 -178l-35 20q0 -130 -30 -303q-15 -82 -66 -200q39 -153 35 -267q-6 -153 -33 -170q-35 -22 -264 -45q-222 -22 -225 -18l30 227q51 8 74 14q78 22 111 52q122 111 153 186q-113 219 -321 373l-37 -45q-15 0 -105 84q-100 93 -102 135q-2 37 40 129
q44 96 75 100q33 5 137 -102q92 -95 156 -184q33 -47 127 -205q78 -132 90 -156q28 72 41 238q13 174 -19 397l37 45q46 56 74 107q2 4 6 4q7 0 33 -37q29 -43 59 -82q34 -44 98 -119zM639 70q4 17 -1 58q-6 46 -20 46q-11 0 -25.5 -18.5t-33.5 -40.5q-33 -33 -88 -78
q-12 -14 -27 -29l187 27z" />
    <glyph glyph-name="u0644_u0627.final.lamAlef" horiz-adv-x="1223" 
d="M1268 0h-80q-75 0 -152 55q-54 40 -88 133q-23 66 -39 150q-13 72 -18 72q-6 -10 -84 -160q-90 -172 -174 -232q-93 -65 -412 -65q-117 0 -117 12q0 8 86 33q126 36 197 65q89 37 215 117q16 62 16 152q0 70 -16 104q-50 104 -125 199q-58 73 -90 94l-63 -74
q-158 150 -166 222q-5 43 21 124q29 89 63 101q6 2 13 2q69 0 226 -193q174 -212 193 -360q4 -32 4 -66q0 -92 -19 -243q42 22 74 53q75 73 101 192q9 44 10 201l2 367l131 123l10 -584q3 -162 27 -228q43 -116 172 -116h82v-250z" />
    <glyph glyph-name="u0670_u0651.shaddaAlefAbove" horiz-adv-x="0" 
d="M136 1931l72 43v-194l-72 -38v189zM301 1503q-10 -4 -20 -4q-19 0 -47.5 13.5t-40.5 9.5q-19 -31 -35 -60q-35 -55 -78 -57q-60 -2 -60 104v88l50 27q2 -84 41 -84q14 0 32 12q27 19 13 113l59 35q-8 -17 10.5 -57.5t50.5 -40.5q48 0 39 139l58 39q2 -29 2 -62
q0 -190 -74 -215z" />
    <glyph glyph-name="rial" unicode="&#xe190;" horiz-adv-x="1777" 
d="M766 926l-50 -133v-808q0 -112 -126 -222q-113 -100 -241 -100q-61 0 -112 26t-87.5 72.5t-56 110.5t-19.5 140q0 113 34 222q16 51 28 72.5t19 21.5q0 -15 -3 -45.5t-7 -63.5t-7.5 -63.5t-3.5 -46.5q0 -158 78 -232q84 -79 166 -79q33 0 69 17t68 44.5t58 63.5t41 73
v868l-26 170l107 137l11 -165zM1392 138q0 -138 -32 -138h-318v0q-66 0 -106.5 18t-59 57t-18.5 138v825l96 151v-976q0 -58 43 -58h297q9 -1 9 20q0 16 -8 46.5t-19.5 60t-24.5 51.5t-21 22l57 168q39 -22 73 -175q32 -136 32 -210zM1711 80q0 -205 -130 -350
q-112 -125 -216 -125q-131 0 -258 219q10 -13 29 -25q26 -14 64 -28q32 -11 60 -16t51 -5q208 0 327 281q8 21 8 40q0 110 -133 224l59 151q32 -24 57 -63.5t43.5 -88.5t28.5 -104t10 -110zM1000 -635l46 118l130 -100l-52 -116zM1303 -718l-127 101l48 107l129 -96z
M1104 -212q-1 3 -2 4q1 -1 2 -4z" />
    <glyph glyph-name="u0600.numberSign" unicode="&#xe000;" horiz-adv-x="1454" 
d="M1386 218l-53 -122l-255 -21h-1067l81 127h779q-59 81 -59 129q0 81 150 199q41 32 96 32q36 0 68.5 -15t58 -39.5t43.5 -61t24 -76.5q-9 12 -28 23.5t-43 19.5t-48.5 12.5t-45.5 4.5q-111 0 -159 -95v-4q0 -15 15 -35.5t45 -47.5q29 -22 51.5 -34.5t38.5 -12.5z" />
    <glyph glyph-name="u0601.sanah" unicode="&#xe001;" horiz-adv-x="2849" 
d="M2785 518q0 -62 -237 -359q-66 -81 -74 -80q-4 4 -4 10q0 13 49 93q88 111 177 240q-16 4 -35 8q-28 -1 -46 -4q-539 -250 -1021 -250q-536 0 -672 190q-2 0 -68.5 -64.5t-136.5 -64.5q-90 0 -158 78t-72 78q-80 0 -143 -130q-16 -36 -46 -105q-42 -91 -83 -91
q-71 0 -113 115q-31 87 -31 175q0 28 11 77q13 63 30 63q12 0 4 -38q-11 -57 -11 -75q0 -64 27 -126q33 -82 86 -82q61 0 81 99q29 75 77 151q71 107 135 107q5 0 76 -83.5t137 -83.5q75 0 119 31q24 18 88 95q21 26 33 26q0 -10 17 -47q67 -92 327 -137q180 -32 292 -32
q519 0 1041 231q40 16 89 14q55 0 55 -29zM814 664l-61 -111l-116 73l55 114zM472 720l-53 -117l-112 67l-46 -100l-125 81l54 119l109 -74l47 102z" />
    <glyph glyph-name="u0602.footnoteMarker" unicode="&#xe002;" horiz-adv-x="1389" 
d="M1320 292q0 -2 -2 -5t-15 -21q-4 -3 -5 -7q-6 -5 -27 -29l-21 -26l-27 -27q-29 -28 -61 -43q-46 -22 -116 -42q-61 -19 -152 -40q-3 -1 -86 -16q-223 -39 -429 -39q-292 0 -292 132q0 56 39 127.5t100 125.5q133 119 270 119q77 0 126 -50.5t49 -129.5q0 -62 -62 -167
q37 2 184 15q8 0 80 11q81 10 156 26q95 20 188 49q58 18 85 33l10 6q3 1 4 1.5t3 0.5q1 0 1 -4zM580 207q0 73 -41 114t-114 41q-60 0 -129 -26q-44 -18 -75 -44.5t-31 -45.5q0 -44 106 -74q73 -19 214 -19h43l24 1q3 40 3 53z" />
    <glyph glyph-name="u603.safha" unicode="&#xe003;" horiz-adv-x="1173" 
d="M1118 485q0 -68 -56 -170q-43 -78 -111 -131q-59 -47 -147 -78t-159 -31q-73 0 -118 39l-20 18q-40 33 -66 33q-11 0 -90.5 -58.5t-187.5 -65t-197 1.5q78 8 122 32q94 41 151 80.5t124 105t141 65.5q33 0 51 -24l8 -10q21 -21 62 -34q7 9 8 12l12 17q6 10 14 21l15 21
l13 19l19 26l20 26q19 26 27 36q2 2 28 34q17 19 54 57q89 77 166 77q53 0 85 -33t32 -86zM1042 386q0 19 -15 38q-28 35 -76 35q-63 0 -144 -58t-144 -147q15 -2 31 -2q123 0 214 34q134 49 134 100z" />
    <glyph glyph-name="u0606.cubeRoot" unicode="&#xe006;" horiz-adv-x="1059" 
d="M43 1099l3 68h189h54l194 -881l301 507l224 -112l-26 -47l-147 67l-368 -610l-230 997zM712 1098q5 -23 -1 -48q-22 -85 -59 -85q-32 0 -67 19q-22 -23 -37.5 -29.5t-18.5 -6.5q11 -37 17 -73.5t6 -71.5q0 -26 -6.5 -52.5t-18.5 -40.5q-19 187 -116 324l37 64
q48 -64 88 -64q31 0 75 80l8 -27q8 -33 44 -33q20 0 44 54q1 -1 5 -10z" />
    <glyph glyph-name="u0607.fourthRoot" unicode="&#xe007;" horiz-adv-x="1059" 
d="M43 1099l3 68h189h54l194 -881l301 507l224 -112l-26 -47l-147 67l-368 -610l-230 997zM637 817q-15 -46 -25 -73q-10 -6 -58 10t-63 30t-15 26q0 20 18 46t42 58q-10 10 -37 28.5t-27 28.5q0 67 87 126q29 14 34 14l-9 -51q-16 -6 -31.5 -20.5t-15.5 -21.5q0 -8 68 -40
l2 -10l-5 -17q-5 -17 -20 -31q-49 -50 -49 -66q20 -14 104 -37z" />
    <glyph glyph-name="u0608.ray" unicode="&#xe008;" horiz-adv-x="1280" 
d="M1233 215l-116 -38q1 -53 1 -60v-11q-7 -167 -130 -244q-221 -120 -369 -119q-74 0 -133.5 18.5t-102.5 60t-66 102t-23 134.5q0 70 27 169q6 21 13 39q-8 -10 -17 -13q-33 -19 -71 -33t-77 -24t-78.5 -16t-73.5 -6l1 25q45 9 100 34t110.5 58.5t105 70t82.5 64.5l4 -6
l2 -6q-4 -8 -22.5 -42.5t-34 -98t-17.5 -99.5t-2 -50q0 -212 213 -228q143 0 264 23q203 50 210 179q0 21 -10 50q-35 -8 -83 -8q-212 7 -212 164q0 81 50 191q60 125 130 125q67 0 138 -133q60 -113 59 -167l150 45zM1009 297q0 35 -53 98q-53 62 -86 62q-9 0 -18.5 -9
t-17 -23.5t-11.5 -31.5t-4 -32q0 -75 115 -75q50 0 75 10v1z" />
    <glyph glyph-name="u0609.perMilleSign" unicode="&#xe009;" horiz-adv-x="864" 
d="M822 1058l-684 -1244h-82l691 1244h75zM241 838q0 -65 -68 -65q-14 0 -25.5 6t-20.5 16.5t-14 23.5t-5 26q0 67 65 67q68 0 68 -74zM769 5q0 -14 -6 -26t-15.5 -20.5t-21 -13.5t-24.5 -5q-65 0 -65 57q0 29 17.5 51.5t45.5 22.5q69 0 69 -66zM620 5q0 -14 -5.5 -26
t-15.5 -20.5t-21.5 -13.5t-24.5 -5q-66 0 -66 57q0 29 18.5 51.5t45.5 22.5q69 0 69 -66z" />
    <glyph glyph-name="u060a.perTenThousandSign" unicode="&#xe00a;" horiz-adv-x="864" 
d="M822 1058l-684 -1244h-82l691 1244h75zM241 838q0 -65 -68 -65q-14 0 -25.5 6t-20.5 16.5t-14 23.5t-5 26q0 67 65 67q68 0 68 -74zM695 5q0 -14 -6 -26t-15.5 -20.5t-21.5 -13.5t-25 -5q-65 0 -65 57q0 29 18 51.5t46 22.5q69 0 69 -66zM546 5q0 -14 -5.5 -26t-15 -20.5
t-22 -13.5t-24.5 -5q-65 0 -65 57q0 29 17.5 51.5t44.5 22.5q70 0 70 -66zM843 5q0 -14 -5.5 -26t-15 -20.5t-21.5 -13.5t-24 -5q-66 0 -66 57q0 29 18 51.5t45 22.5q69 0 69 -66z" />
    <glyph glyph-name="u060b.afghaniSign" unicode="&#xe00b;" horiz-adv-x="794" 
d="M718 214q0 -114 -14 -130q-6 -9 -70 -9l-547 4l13 135l452 3l-148 63q-80 47 -80 123q0 75 78 186q82 118 152 118q92 0 136 -209q14 -68 21 -138.5t7 -145.5zM640 330q0 46 -44 133q-50 94 -89 94q-12 0 -29 -13.5t-33 -31t-28.5 -36t-14.5 -29.5l235 -128q3 3 3 11z
M607 941l-69 -118l-169 101l69 119zM553 -249l-90 -67l-1 282l91 56v-271z" />
    <glyph glyph-name="u060d.dateSeparator" unicode="&#xe00d;" horiz-adv-x="735" 
d="M706 1089l-553 -1003h-98l554 1003h97z" />
    <glyph glyph-name="u060e.poeticVerseSign" unicode="&#xe00e;" horiz-adv-x="1389" 
d="M1343 2q-37 52 -85 52q-20 0 -57 -16t-46 -16q-39 0 -39 32q0 8 2 17q-25 -14 -55 -69h-59q46 69 46 120q0 103 -79 103q-41 0 -67 -27q-5 20 -5 37q0 69 82 69q41 0 82 -42q-1 63 -35 116q-38 60 -98 66q22 -20 22 -52q0 -78 -115 -165q-36 -25 -73 -46q-6 -25 -6 -43
q0 -79 83 -79q67 0 67 42q0 15 -20 31q16 -23 16 -35q0 -32 -44 -32q-35 0 -35 47q0 70 66 70q64 0 64 -70q0 -110 -146 -110q-90 0 -146 64q-21 25 -34 51q-55 -21 -80 -37q3 1 7 1q29 0 29 -29q0 -50 -53 -50t-53 53q-158 -57 -253 -57q-153 0 -153 111q0 83 76 83
q83 0 83 -73q0 -57 -52 -57q-54 0 -54 42q0 30 19 33q-25 -2 -25 -36q0 -49 86 -49q145 0 323 194q145 156 178 183q103 87 204 87q103 0 166 -92q53 -81 53 -189q0 -64 -19 -126q45 32 92 32q59 0 102 -41t38 -98zM755 310q0 31 -34 31q-68 0 -68 -114q0 -14 2 -28
q34 19 69 40q4 2 7 4q24 57 24 67zM882 398q0 36 -35 36q-36 0 -88 -37q48 -4 48 -69q0 -13 -9 -40q84 63 84 110zM607 221q0 21 4 40q-119 -117 -155 -145q79 25 154 61q-3 21 -3 44zM1257 85q-24 22 -59 19q-34 -3 -34 -26q0 -10 10 -10q2 0 35 16q25 11 48 1zM674 136
q17 -31 47 -51q-13 34 -13 66q-17 -7 -34 -15zM539 39q-7 7 -9 14q2 -10 9 -14zM149 138q-1 0 -4 -1q3 1 4 1z" />
    <glyph glyph-name="u060f.misra" unicode="&#xe00f;" horiz-adv-x="868" 
d="M677 -261q-145 -51 -279 -51q-39 0 -74 6q11 -40 23 -74q14 -35 19 -53l-1 -6h-1q-19 0 -77 127l-7 15q-16 5 -33 11q-66 25 -114.5 71.5t-74.5 111t-26 142.5q0 90 39 198t108 219q20 31 38 50.5t30 27.5q-129 43 -129 166q0 85 64 182q69 107 149 107q23 0 51.5 -14
t54.5 -35.5t43 -47t17 -50.5q-1 -4 -3 -4q-48 25 -120 25q-28 0 -57 -8t-52.5 -22t-38.5 -32t-15 -38t14.5 -39.5t36 -34t47.5 -23.5t47 -9q52 0 140 42q8 5 40 21t90 46l-28 -152h-5q-28 0 -134 -58q-349 -192 -349 -476q0 -48 10 -95q17 -73 104 -111q-5 26 -5 48
q-5 84 25 147.5t77 100t111 57t137 20.5q70 0 136 -60.5t85 -145t-2 -166.5q-29 -89 -109 -133zM557 -166q171 4 170 135q-10 76 -66 115q-47 26 -116 26q-252 -7 -252 -251v-7q76 -17 184 -17q32 0 80 -1z" />
    <glyph glyph-name="u0610.sallallahouAlayheWassallam" unicode="&#xe010;" horiz-adv-x="0" 
d="M714 1521q-1 -55 -53 -132q-6 -11 -43 -11h-416q-10 -69 -43 -93q-34 -31 -120 -61l25 98q33 9 44 16q38 15 42 23q3 13 3 30q0 15 -4.5 41.5t-18.5 61.5t-23 46l56 81q39 -49 43 -142h28q39 0 86 38q45 32 67 51q109 95 146 95q35 0 76 -18q105 -66 105 -124zM659 1494
q0 18 -52 46q-49 24 -70 24q-79 0 -139 -41q-45 -34 -45 -49q3 -1 40.5 -3t149.5 -2q116 0 116 25z" />
    <glyph glyph-name="u0611.alayheAssallam" unicode="&#xe011;" horiz-adv-x="0" 
d="M595 1503l-50 -98l-264 -28h-79q-10 -68 -43 -92q-34 -31 -120 -61l25 98q33 9 44 16q38 15 42 23q3 13 3 30q0 15 -4.5 41.5t-18.5 61.5t-23 46l56 81q39 -49 43 -142h103q-44 67 -44 90q0 40 51 89t96 49q37 0 74 -39t42 -78q-4 6 -28 22t-53 16q-52 1 -102 -23l-1 -3
q0 -6 16 -30t30 -36q15 -13 39 -30t32 -19z" />
    <glyph glyph-name="u0612.rahmatullahAlayhe" unicode="&#xe012;" horiz-adv-x="0" 
d="M642 1499q0 -107 -48 -177q-66 -93 -130 -93q-49 0 -96.5 48t-63.5 98l16 -11q18 -10 48 -22.5t70 -12.5q65 3 112 62t47 77q0 39 -79 108l44 94q20 -20 50 -70t30 -101zM13 1217q0 102 75 202q36 46 42 55q-13 5 -30 5q-7 0 -34.5 -5t-38.5 -10q-9 -3 -41 -34
q2 33 15 51q23 39 45 64t33 27.5t26 2.5q31 0 104.5 -10.5t104.5 -10.5q52 0 102 5l-55 -108l-22 3q-54 2 -102 -6t-88 -42.5t-64.5 -77t-24.5 -93.5z" />
    <glyph glyph-name="u0613.radiAllahouAnhu" unicode="&#xe013;" horiz-adv-x="0" 
d="M836 1424q0 -106 -49 -176q-65 -93 -130 -93q-49 0 -96 47.5t-65 97.5l18 -11q18 -10 47.5 -22.5t69.5 -12.5q65 4 112 63t47 76q-1 40 -78 109l44 94q20 -20 50 -70t30 -102zM648 1521q-1 -55 -52 -132q-7 -11 -43 -11h-351q-10 -69 -43 -93q-34 -31 -120 -61l25 98
q33 9 44 16q38 15 42 23q3 13 3 30q0 15 -4.5 41.5t-18.5 61.5t-23 46l56 81q39 -49 43 -142h8q23 0 71 38q43 32 67 51q109 95 138 95q27 0 68 -18q90 -66 90 -124zM593 1494q0 18 -36 46q-49 24 -70 24q-65 0 -125 -41q-46 -34 -46 -49q4 -1 42 -3t134 -2q101 0 101 25z
M349 1702l-44 -75l-109 63l42 75z" />
    <glyph glyph-name="uni0614" unicode="&#xe014;" horiz-adv-x="0" 
d="M702 1303q0 -82 -23 -82h-283v0h-358l37 90h271q8 0 8 13q0 10 -6 27.5t-14.5 35.5t-18 30.5t-15.5 12.5l41 99q29 -13 55 -103q20 -72 22 -115h212q7 0 7 13q0 10 -5.5 27.5t-14.5 35.5t-18.5 30.5t-15.5 12.5l42 99q29 -13 54 -103q23 -80 23 -123z" />
    <glyph glyph-name="u0615.smallHighTah" unicode="&#xe015;" horiz-adv-x="0" 
d="M381 1236q0 -10 -7 -13.5t-14 -3.5h-325l-20 52q22 -4 39 -4q40 0 70 21v235l-12 60l37 49l5 -59l27 -27l-24 -47v-191q70 72 128 72q13 0 27 -5t25 -10.5t18.5 -11t9.5 -9.5q16 -17 16 -61v-47zM353 1279q0 9 -8.5 17.5t-23 15.5t-31.5 11.5t-34 4.5q-8 0 -21 -6.5
t-27 -14.5t-25 -18t-16 -18q35 -2 61.5 -3.5t44.5 -1.5q80 0 80 13z" />
    <glyph glyph-name="u0616.smallHighLigatureAlefWithLamWithYeh" unicode="&#xe016;" horiz-adv-x="0" 
d="M711 1295q-16 -45 -20 -45q-61 0 -106 -1q-14 0 -227 -16q-183 -13 -237 -13q-103 0 -103 30q0 17 11 39q14 30 38 46q13 5 78 35q48 23 48 44q0 12 -15 93q-13 74 -11 86q-7 13 -7 19q0 8 6 31t9 23q1 -2 2 -8q2 -17 18 -29q7 -6 8 -8q0 -12 -16 -48q1 -17 10 -73
q8 -52 8 -68q0 -74 -75 -105q-85 -36 -85 -45q0 -13 115 -13q70 0 230 10l197 12q68 4 124 4zM312 1443q0 -64 -6 -81q-2 -3 -5 -3q-4 1 -4 7q-1 68 -12 142q-5 30 -14 89q-1 7 11 55q3 14 4 15q3 0 6 -20q0 -5 12 -101q8 -62 8 -103z" />
    <glyph glyph-name="u0617.smallHighZain" unicode="&#xe017;" horiz-adv-x="0" 
d="M360 1469q0 -107 -48 -177q-66 -93 -130 -93q-49 0 -96.5 48t-64.5 98l17 -11q17 -10 47.5 -22.5t70.5 -12.5q64 3 111.5 62t47.5 77q-1 40 -80 109l44 93q21 -20 51 -70t30 -101zM245 1784l-44 -75l-109 63l42 75z" />
    <glyph glyph-name="u0618.smallFatha" unicode="&#xe018;" horiz-adv-x="0" 
d="M288 1390l-217 -120v60l217 121v-61z" />
    <glyph glyph-name="u0619smallDamma" unicode="&#xe019;" horiz-adv-x="0" 
d="M254 1347l-17 -37q-11 2 -25 5.5t-34 9.5q-28 -28 -64 -54.5t-79 -52.5l-23 40q1 -1 3 -1q11 0 64 37q50 35 63 50q-61 28 -61 65q0 13 11 29t27.5 30t35 23t32.5 9q31 0 42 -10.5t11 -40.5q0 -32 -39 -89q8 -3 21.5 -6.5t31.5 -6.5zM186 1438q0 16 -18 16q-27 0 -27 -28
q0 -22 27 -39q18 30 18 51z" />
    <glyph glyph-name="u61a.smallKasra" unicode="&#xe01a;" horiz-adv-x="0" 
d="M80 -474l-215 -132v49l215 132v-49z" />
    <glyph glyph-name="u061e.tripleDotPunctuationMark" unicode="&#xe01e;" horiz-adv-x="410" 
d="M245 1110l-55 -100l-135 81l52 96zM31 913l49 95l130 -79l-51 -95zM344 850l-134 79l46 89l134 -79z" />
    <glyph glyph-name="u0657.invertedDamma" unicode="&#xe057;" horiz-adv-x="0" 
d="M11 1461l24 58q16 -4 36.5 -9.5t48.5 -14.5q42 45 94 87t117 81l32 -61q-2 1 -5 1q-16 0 -92 -59q-74 -56 -93 -78q90 -46 90 -104q0 -22 -16.5 -47t-40 -46.5t-51 -36t-47.5 -14.5q-45 0 -61 17.5t-16 63.5q0 51 57 140q-13 5 -32.5 10.5t-44.5 11.5zM110 1318
q0 -28 26 -28q40 0 40 46q0 34 -40 61q-26 -48 -26 -79z" />
    <glyph glyph-name="u0658.markNoonGhunna" unicode="&#xe058;" horiz-adv-x="0" 
d="M346 1389v-22q0 -33 -15 -60t-46 -48q-69 -41 -136 -41q-52 0 -83 17.5t-38.5 35.5t-7.5 41q0 45 17.5 77t38.5 64l8 6q-4 -5 -17.5 -37.5t-13.5 -65.5q0 -68 107 -68q60 0 100.5 25t42.5 28q4 10 4 25q-4 43 -16 62t-20 26l45 53q30 -42 30 -118z" />
    <glyph glyph-name="u065a.smallVAbove" unicode="&#xe05a;" horiz-adv-x="0" 
d="M371 1453l-128 -217q-20 -21 -50 -21t-50 21l-127 216l56 1l121 -134l123 134h55z" />
    <glyph glyph-name="u065b.invertedSmallVAbove" unicode="&#xe05b;" horiz-adv-x="0" 
d="M321 1216l-123 133l-121 -133l-55 1l126 216q20 21 50 21t50 -21l128 -217h-55z" />
    <glyph glyph-name="u065c.dotBelow" unicode="&#xe05c;" horiz-adv-x="0" 
d="M197 -387q0 -66 -69 -66q-12 0 -24 6t-20.5 16.5t-14 23.5t-5.5 26q0 67 64 67q69 0 69 -73z" />
    <glyph glyph-name="u065d.reversedDamma" unicode="&#xe05d;" horiz-adv-x="0" 
d="M11 1461l24 58q16 -4 36.5 -9.5t48.5 -14.5q42 45 94 87t117 81l32 -61q-2 1 -5 1q-16 0 -92 -59q-74 -56 -93 -78q90 -46 90 -104q0 -22 -16.5 -47t-40 -46.5t-51 -36t-47.5 -14.5q-45 0 -61 17.5t-16 63.5q0 51 57 140q-13 5 -32.5 10.5t-44.5 11.5zM110 1318
q0 -28 26 -28q40 0 40 46q0 34 -40 61q-26 -48 -26 -79z" />
    <glyph glyph-name="u065e.fathaWithTwoDots" unicode="&#xe05e;" horiz-adv-x="0" 
d="M243 1540l-39 -69l-98 57l39 68zM357 1271l-40 -67l-97 56l38 68zM364 1430l-293 -160v79l293 161v-80z" />
    <glyph glyph-name="u0644_u0644_u0647.lamLamHeh" horiz-adv-x="1542" 
d="M893 1299q0 -26 -14 -46.5t-43 -50.5q-4 38 -8.5 76t-15.5 73l52 69q10 -8 16 -22.5t9 -31.5t3.5 -34.5t0.5 -32.5zM1532 316q0 -13 -4 -42.5t-12.5 -66t-22.5 -75t-33.5 -71t-45.5 -53t-59 -20.5q-13 0 -41 1.5t-62.5 5t-72 10t-70.5 16.5t-57 24.5t-31 34.5l-33 91
l-15 49q-43 -127 -75 -186.5t-62 -59.5q-15 0 -44 3.5t-63.5 11.5t-69 20.5t-60.5 30.5q-24 16 -38 37.5t-22.5 48t-12.5 57.5t-7 66h-17q-15 -46 -33 -87t-37 -72.5t-37.5 -50t-34.5 -18.5q-22 0 -50 10.5t-57.5 26.5t-57.5 35.5t-50.5 38t-36 33.5t-13.5 22q0 60 25 119
t70 112t107.5 98t138.5 78l-4 47l84 159q12 -50 25.5 -110t27 -122t27.5 -123t27 -114q5 -21 33 -37t62 -26.5t64 -15.5t40 -5q26 0 45 2t34 8q-4 33 -9 76t-12 92.5t-15.5 104t-18.5 111.5q35 69 66 118t61 83q8 -32 20.5 -85.5t27 -121.5t30.5 -148t33 -166q29 -30 99 -45
t163 -15q7 0 7 20q0 26 -11 78t-25.5 113t-29.5 123t-24 109q13 36 26.5 66t30 58t36 56.5t44.5 61.5q25 -102 49 -200.5t42.5 -182.5t29.5 -148.5t11 -98.5zM497 328q0 39 -11.5 88t-28.5 96h-5q-26 -47 -58.5 -87.5t-80.5 -63.5q23 -38 53.5 -52.5t60.5 -14.5
q28 0 49 10.5t21 23.5zM1072 1197q0 -190 -74 -215q-12 -4 -20 -4q-14 0 -48 14q-30 12 -40 9q-12 -21 -35 -60q-34 -55 -78 -57q-60 -2 -60 104v88l50 27q2 -84 41 -84q14 0 32 12q27 19 13 113l59 35q-2 -5 -2 -13q0 -16 12 -45q19 -41 51 -41q48 0 39 140l58 39
q2 -29 2 -62z" />
    <glyph glyph-name="u0621.hamza" unicode="&#xe021;" horiz-adv-x="748" 
d="M735 377q0 -27 -69 -162l-359 -123q-56 -28 -151 -94q-86 -59 -99 -59q-9 0 -6 12q28 123 64 176q22 20 43 41q1 1 1 3q0 12 -50 57q-58 53 -58 73q0 58 88 193q78 118 105 137q96 67 221 67q127 0 127 -63q0 -15 -10 -33l-90 -158q-25 64 -121 64q-67 0 -156 -39
q-39 -17 -39 -41q0 -50 97 -83q77 -26 139 -26q33 0 67 9l246 59q10 3 10 -10z" />
    <glyph glyph-name="u0622.maddaOnAlef" unicode="&#xe022;" horiz-adv-x="555" 
d="M449 1206q0 -45 -35 -88q-48 -58 -142 -59q-77 -1 -114 -33q-15 -12 -37 -35q-10 -2 -10 31q0 122 161 125q96 1 136 37l36 37q5 -2 5 -15zM440 174q0 -61 -61 -147q-55 -76 -113 -117l8 180q3 74 -20 404l-25 329q156 197 181 199q3 -41 16 -305l14 -326v-217z" />
    <glyph glyph-name="u0622.final.maddaOnAlef" horiz-adv-x="555" 
d="M600 0h-90q-101 2 -147 19q-86 37 -125 159q-10 36 -25 150l-37 496q176 153 184 147q3 -37 12 -223l21 -422q3 -54 51 -69q23 -7 95 -7h61v-250zM433 1175q0 -134 -183 -134q-44 0 -65 -13q-5 -4 -15.5 -16.5t-26.5 -34.5q1 12 1.5 33.5t5.5 51.5q5 37 45 55.5t113 18.5
q28 0 44.5 2.5t30 9t24.5 20t26 36.5v-29z" />
    <glyph glyph-name="u0623.hamzaOnAlef" unicode="&#xe023;" horiz-adv-x="555" 
d="M458 1071l-25 -78q-60 -17 -97.5 -36t-90.5 -64q-18 -16 -53 -47q-15 -4 -15 14q0 17 12 51q11 29 13 31q-62 23 -62 66q0 49 66 129q45 55 98 55q33 0 76 -21l-27 -51q-2 6 -32 6q-84 0 -109 -47q-12 -23 -12 -39q0 -36 55 -36q34 0 59 10zM449 158q0 -54 -55 -136
q-47 -70 -97 -112q4 72 4 184q0 79 -22 348l-25 275q135 174 160 176q4 -40 18 -282l17 -308v-145z" />
    <glyph glyph-name="u0623.final.hamzaOnAlef" horiz-adv-x="555" 
d="M375 1067l-25 -78q-60 -17 -97.5 -36t-90.5 -64q-18 -16 -53 -47q-15 -4 -15 14q0 17 12 51q11 29 13 31q-62 23 -62 66q0 49 66 129q45 55 98 55q33 0 76 -21l-27 -51q-2 6 -32 6q-84 0 -109 -47q-12 -23 -12 -39q0 -36 55 -36q34 0 59 10zM602 0h-49q-107 0 -158 16
q-70 23 -123 88q-45 57 -59 224l-33 391q170 166 180 162q3 -19 11 -185l14 -293q5 -110 33 -136q18 -17 53 -19q-20 2 68 2h59z" />
    <glyph glyph-name="u0624.hamzaOnWaw" unicode="&#xe024;" horiz-adv-x="950" 
d="M694 1014l-20 -113q-76 -19 -115 -37q-60 -28 -133 -84q-60 -46 -61 -49q-13 -2 -13 12q0 21 35 82q30 54 35 56q-12 0 -49 16q-44 19 -45 35q-9 83 62 190q75 113 157 113q22 0 53 -10q43 -15 47 -15l-41 -110q-16 16 -98 16q-49 0 -78 -38q-24 -31 -24 -54
q0 -21 43 -38q34 -13 75 -13q31 0 51 6zM946 178q0 -90 -22 -180q-54 -216 -164 -379q-148 -220 -338 -225q-108 -3 -236 80q-98 64 -182 159q-65 74 -65 91q1 3 2 4q4 4 104 -41q122 -56 227 -56q21 0 54 4q186 24 325 150q100 90 148 201q-11 -2 -33 -2q-114 0 -234 39
q-155 50 -157 133q-6 219 98 399q94 162 189 162q122 0 210 -219q74 -182 74 -320zM791 233q1 3 1 7q0 28 -61 108q-75 100 -143 103q-29 1 -67.5 -63.5t-26.5 -78.5q40 -47 170 -69q120 -21 127 -7z" />
    <glyph glyph-name="u0624.final.hamzaOnWaw" horiz-adv-x="950" 
d="M694 1014l-20 -113q-76 -19 -115 -37q-60 -28 -133 -84q-60 -46 -61 -49q-13 -2 -13 12q0 21 35 82q30 54 35 56q-12 0 -49 16q-44 19 -45 35q-9 83 62 190q75 113 157 113q22 0 53 -10q43 -15 47 -15l-41 -110q-16 16 -98 16q-49 0 -78 -38q-24 -31 -24 -54
q0 -21 43 -38q34 -13 75 -13q31 0 51 6zM995 0h-69q-5 -10 -13 -37q-54 -198 -155 -348q-148 -217 -336 -221q-110 -2 -236 80q-98 64 -182 159q-65 74 -65 91q1 3 2 4q4 4 104 -41q122 -56 227 -56q21 0 54 4q186 24 325 150q100 90 148 201q-11 -2 -33 -2q-114 0 -234 39
q-155 50 -157 133q-6 219 98 399q94 162 189 162q77 0 153 -113q62 -91 103 -215q37 -113 24 -139h53v-250zM791 233q1 3 1 7q0 28 -61 108q-75 100 -143 103q-29 1 -67.5 -63.5t-26.5 -78.5q40 -47 170 -69q120 -21 127 -7z" />
    <glyph glyph-name="u0625.hamzaUnderAlef" unicode="&#xe025;" horiz-adv-x="555" 
d="M475 -412l-20 -113q-76 -19 -115 -37q-60 -28 -133 -84q-60 -46 -61 -49q-13 -2 -13 12q0 21 35 82q30 54 35 56q-12 0 -49 16q-44 19 -45 35q-9 83 62 190q75 113 157 113q22 0 53 -10q43 -15 47 -15l-41 -110q-16 16 -98 16q-49 0 -78 -38q-24 -31 -24 -54
q0 -21 43 -38q34 -13 75 -13q31 0 51 6zM414 170q0 -34 -66 -131q-78 -92 -117 -129q0 9 2 76q4 124 3 192q-4 136 -15 273q-27 344 -26 383l2 120q145 195 170 197q6 2 22 -297l17 -334z" />
    <glyph glyph-name="u0625.final.hamzaUnderAlef" horiz-adv-x="555" 
d="M427 -293l-20 -113q-76 -19 -115 -37q-60 -28 -133 -84q-60 -46 -61 -49q-13 -2 -13 12q0 21 35 82q30 54 35 56q-12 0 -49 16q-44 19 -45 35q-9 83 62 190q75 113 157 113q22 0 53 -10q43 -15 47 -15l-41 -110q-16 16 -98 16q-49 0 -78 -38q-24 -31 -24 -54
q0 -21 43 -38q34 -13 75 -13q31 0 51 6zM600 0h-90q-125 0 -164 12q-71 23 -94 111q-10 36 -23 203l-53 678q166 153 174 147q3 -37 12 -223l31 -602q3 -54 51 -69q23 -7 95 -7h61v-250z" />
    <glyph glyph-name="u0626.hamzaOnYeh" unicode="&#xe026;" horiz-adv-x="1268" 
d="M394 869l-20 -113q-76 -19 -115 -37q-60 -28 -133 -84q-60 -46 -61 -49q-13 -2 -13 12q0 21 35 82q30 54 35 56q-12 0 -49 16q-44 19 -45 35q-9 83 62 190q75 113 157 113q22 0 53 -10q43 -15 47 -15l-41 -110q-16 16 -98 16q-49 0 -78 -38q-24 -31 -24 -54q0 -21 43 -38
q34 -13 75 -13q31 0 51 6zM1257 684q0 -74 -75 -188q-52 65 -90 69q-13 2 -26 2q-110 0 -234.5 -95.5t-114.5 -139.5q3 -14 231 -81q222 -65 215 -99l-43 -209q-3 -16 -114 -97q-131 -94 -271 -157q-185 -84 -334 -84q-158 0 -268 96q-125 110 -125 301q0 128 55 279
q46 123 109 217q52 77 73 77q3 0 6 -2t3 -8q0 5 -75 -153t-75 -258q0 -93 48 -168q88 -142 305 -142q159 0 356 72q174 64 170 84q-2 11 -176 72q-182 63 -211 94q-12 13 -12 39q0 97 122 253q102 130 203 206q132 97 246 97q14 0 29 -1q73 -9 73 -76z" />
    <glyph glyph-name="u0626.initial.hamzaOnYeh" 
d="M694 1014l-20 -113q-76 -19 -115 -37q-60 -28 -133 -84q-60 -46 -61 -49q-13 -2 -13 12q0 21 35 82q30 54 35 56q-12 0 -49 16q-44 19 -45 35q-9 83 62 190q75 113 157 113q22 0 53 -10q43 -15 47 -15l-41 -110q-16 16 -98 16q-49 0 -78 -38q-24 -31 -24 -54
q0 -21 43 -38q34 -13 75 -13q31 0 51 6zM715 143q0 -94 -29 -131q-7 -9 -133 -18q-117 -8 -166 -8q-57 0 -171 7t-171 7h-47l2 250h45q54 0 161 -8.5t161 -8.5q153 0 165 19q5 8 5 18q0 72 -127 224q-5 9 64 108q68 96 73 96q8 0 51 -73q48 -84 68 -160q49 -192 49 -322z
" />
    <glyph glyph-name="u0626.medial.hamzaOnYeh" 
d="M694 1014l-20 -113q-76 -19 -115 -37q-60 -28 -133 -84q-60 -46 -61 -49q-13 -2 -13 12q0 21 35 82q30 54 35 56q-12 0 -49 16q-44 19 -45 35q-9 83 62 190q75 113 157 113q22 0 53 -10q43 -15 47 -15l-41 -110q-16 16 -98 16q-49 0 -78 -38q-24 -31 -24 -54
q0 -21 43 -38q34 -13 75 -13q31 0 51 6zM768 0h-115q-84 0 -172 -8t-92 -8q-57 0 -172 8t-172 8h-47l2 250h45q54 0 161 -8.5t161 -8.5q153 0 165 19q5 8 5 18q0 72 -127 224q-5 9 64 108q68 96 73 96q8 0 51 -73q48 -83 68 -160q39 -152 39 -215h63v-250z" />
    <glyph glyph-name="u0626.final.hamzaOnYeh" horiz-adv-x="1178" 
d="M406 587l-20 -113q-76 -19 -115 -37q-60 -28 -133 -84q-60 -46 -61 -49q-13 -2 -13 12q0 21 35 82q30 54 35 56q-12 0 -49 16q-44 19 -45 35q-9 83 62 190q75 113 157 113q22 0 53 -10q43 -15 47 -15l-41 -110q-16 16 -98 16q-49 0 -78 -38q-24 -31 -24 -54q0 -21 43 -38
q34 -13 75 -13q31 0 51 6zM1223 0h-78q-42 0 -125 9t-125 9q-96 0 -104 -30q-7 -23 164 -92q158 -65 158 -106q0 -4 -1 -7l-53 -156q-23 -67 -211 -143q-219 -88 -451 -86q-175 2 -279 90q-112 97 -104 268q6 109 58 232q43 102 96 174q41 56 56 56q4 -1 5.5 -3t1.5 -8
q0 -1 -65.5 -124t-65.5 -202q0 -47 21 -92q76 -166 411 -166q77 0 188 16q154 23 157 60q0 5 -147.5 72t-145.5 96q4 51 43 143q46 110 110 178q58 62 379 62h107v-250z" />
    <glyph glyph-name="u0627.alef" unicode="&#xe027;" horiz-adv-x="555" 
d="M414 170q0 -34 -66 -131q-78 -92 -117 -129q0 9 2 76q4 124 3 192q-4 136 -15 273q-27 344 -26 383l2 120q145 195 170 197q6 2 22 -297l17 -334z" />
    <glyph glyph-name="u0627.final.alef" horiz-adv-x="555" 
d="M600 0h-90q-125 0 -164 12q-71 23 -94 111q-10 36 -23 203l-53 678q166 153 174 147q3 -37 12 -223l31 -602q3 -54 51 -69q23 -7 95 -7h61v-250z" />
    <glyph glyph-name="u0628.beh" unicode="&#xe028;" horiz-adv-x="1313" 
d="M1305 219q0 -86 -11 -199q-4 -47 -616 -108q-122 -12 -199 -12q-286 0 -399 155q-51 71 -51 158q0 109 73 233q65 109 78 101q6 -2 6 -10q0 -17 -16 -73.5t-16 -88.5q0 -54 24 -92q92 -146 404 -146q86 0 229 15q337 33 346 49q4 8 4 16q0 76 -151 227l149 181
q146 -88 146 -406zM793 -509l-84 -185l-217 90l78 185z" />
    <glyph glyph-name="u0628.initial.beh" 
d="M715 143q0 -94 -29 -131q-7 -9 -133 -18q-117 -8 -166 -8q-57 0 -171 7t-171 7h-47l2 250h45q54 0 161 -8.5t161 -8.5q153 0 165 19q5 8 5 18q0 72 -127 224q-5 9 64 108q68 96 73 96q8 0 51 -73q48 -84 68 -160q49 -192 49 -322zM512 -450l-84 -185l-217 90l78 185z" />
    <glyph glyph-name="u0628.medial.beh" 
d="M768 0h-115q-84 0 -172 -8t-92 -8q-57 0 -172 8t-172 8h-47l2 250h45q54 0 161 -8.5t161 -8.5q153 0 165 19q5 8 5 18q0 72 -127 224q-5 9 64 108q68 96 73 96q8 0 51 -73q48 -83 68 -160q39 -152 39 -215h63v-250zM517 -450l-84 -185l-217 90l78 185z" />
    <glyph glyph-name="u0628.final.beh" horiz-adv-x="1313" 
d="M1358 0h-88q-118 -41 -592 -88q-123 -12 -199 -12q-286 0 -399 155q-51 71 -51 158q0 109 73 233q65 109 78 101q6 -2 6 -10q0 -17 -16 -73.5t-16 -88.5q0 -54 24 -92q92 -146 404 -146q88 0 231 15q124 12 189 20q150 17 155 27q4 7 4 16q0 76 -151 229l149 181
q26 -21 39 -33q36 -34 66 -94q34 -72 43 -248h51v-250zM793 -510l-84 -185l-217 90l78 185z" />
    <glyph glyph-name="u0629.tehMarbuta" unicode="&#xe029;" horiz-adv-x="770" 
d="M754 383q6 -62 -41 -168q-41 -92 -74 -121q-51 -45 -160 -94q-143 -66 -252 -66q-82 0 -134 44.5t-52 125.5q0 220 356 603q38 -49 58 -64q57 -42 172 -127q122 -91 127 -133zM563 240q6 16 -268 217q-19 -7 -68 -80q-55 -84 -55 -131q0 -16 8 -27q40 -53 142 -53
q48 0 131 20q100 24 110 54zM701 939l-111 -131l-145 123l-103 -123l-149 127l110 131l144 -118l102 121z" />
    <glyph glyph-name="u0629.final.tehMarbuta" 
d="M770 0h-94q-79 0 -115.5 33.5t-46.5 111.5l-14 111q-2 17 -17 37q-16 2 -43 -37l-32 -80q-27 -65 -84 -65q-67 0 -250 79q-51 23 -51 74q0 39 34 115l58 125q12 27 41 65q57 78 293 127l-11 123l142 133l16 -635q3 -67 33 -67h141v-250zM481 375q-10 125 -22 223
q-4 12 -17 12q-10 0 -166 -65q-24 -11 -124 -96q9 -8 147 -80q51 -27 117 -27q68 0 65 33zM650 1083l-111 -131l-145 123l-103 -123l-149 127l110 131l144 -118l102 121z" />
    <glyph glyph-name="u062a.teh" unicode="&#xe02a;" horiz-adv-x="1313" 
d="M1305 219q0 -86 -11 -199q-4 -47 -616 -108q-122 -12 -199 -12q-286 0 -399 155q-51 71 -51 158q0 109 73 233q65 109 78 101q6 -2 6 -10q0 -17 -16 -73.5t-16 -88.5q0 -54 24 -92q92 -146 404 -146q86 0 229 15q337 33 346 49q4 8 4 16q0 76 -151 227l149 181
q146 -88 146 -406zM894 731l-111 -131l-145 123l-103 -123l-149 127l110 131l144 -118l102 121z" />
    <glyph glyph-name="u062a.initial.teh" 
d="M715 143q0 -94 -29 -131q-7 -9 -133 -18q-117 -8 -166 -8q-57 0 -171 7t-171 7h-47l2 250h45q54 0 161 -8.5t161 -8.5q153 0 165 19q5 8 5 18q0 72 -127 224q-5 9 64 108q68 96 73 96q8 0 51 -73q48 -84 68 -160q49 -192 49 -322zM608 934l-111 -131l-145 123l-103 -123
l-149 127l110 131l144 -118l102 121z" />
    <glyph glyph-name="u062a.medial.teh" 
d="M768 0h-115q-84 0 -172 -8t-92 -8q-57 0 -172 8t-172 8h-47l2 250h45q54 0 161 -8.5t161 -8.5q153 0 165 19q5 8 5 18q0 72 -127 224q-5 9 64 108q68 96 73 96q8 0 51 -73q48 -83 68 -160q39 -152 39 -215h63v-250zM606 935l-111 -131l-145 123l-103 -123l-149 127
l110 131l144 -118l102 121z" />
    <glyph glyph-name="u062a.final.teh" horiz-adv-x="1313" 
d="M1358 0h-88q-118 -41 -592 -88q-123 -12 -199 -12q-286 0 -399 155q-51 71 -51 158q0 109 73 233q65 109 78 101q6 -2 6 -10q0 -17 -16 -73.5t-16 -88.5q0 -54 24 -92q92 -146 404 -146q88 0 231 15q124 12 189 20q150 17 155 27q4 7 4 16q0 76 -151 229l149 181
q26 -21 39 -33q36 -34 66 -94q34 -72 43 -248h51v-250zM895 731l-111 -131l-145 123l-103 -123l-149 127l110 131l144 -118l102 121z" />
    <glyph glyph-name="u062b.theh" unicode="&#xe02b;" horiz-adv-x="1313" 
d="M1305 219q0 -86 -11 -199q-4 -47 -616 -108q-122 -12 -199 -12q-286 0 -399 155q-51 71 -51 158q0 109 73 233q65 109 78 101q6 -2 6 -10q0 -17 -16 -73.5t-16 -88.5q0 -54 24 -92q92 -146 404 -146q86 0 229 15q337 33 346 49q4 8 4 16q0 76 -151 227l149 181
q146 -88 146 -406zM713 998l-71 -125l-168 96l75 125zM926 770l-81 -137l-181 109l-72 -117l-184 110l88 136l181 -109l71 113z" />
    <glyph glyph-name="u062b.initial.theh" 
d="M715 143q0 -94 -29 -131q-7 -9 -133 -18q-117 -8 -166 -8q-57 0 -171 7t-171 7h-47l2 250h45q54 0 161 -8.5t161 -8.5q153 0 165 19q5 8 5 18q0 72 -127 224q-5 9 64 108q68 96 73 96q8 0 51 -73q48 -84 68 -160q49 -192 49 -322zM512 1092l-71 -125l-168 96l75 125z
M725 864l-81 -137l-181 109l-72 -117l-184 110l88 136l181 -109l71 113z" />
    <glyph glyph-name="u062b.medial.theh" 
d="M768 0h-115q-84 0 -172 -8t-92 -8q-57 0 -172 8t-172 8h-47l2 250h45q54 0 161 -8.5t161 -8.5q153 0 165 19q5 8 5 18q0 72 -127 224q-5 9 64 108q68 96 73 96q8 0 51 -73q48 -83 68 -160q39 -152 39 -215h63v-250zM510 1088l-71 -125l-168 96l75 125zM723 860l-81 -137
l-181 109l-72 -117l-184 110l88 136l181 -109l71 113z" />
    <glyph glyph-name="u062b.final.theh" horiz-adv-x="1313" 
d="M1358 0h-88q-118 -41 -592 -88q-123 -12 -199 -12q-286 0 -399 155q-51 71 -51 158q0 109 73 233q65 109 78 101q6 -2 6 -10q0 -17 -16 -73.5t-16 -88.5q0 -54 24 -92q92 -146 404 -146q88 0 231 15q124 12 189 20q150 17 155 27q4 7 4 16q0 76 -151 229l149 181
q26 -21 39 -33q36 -34 66 -94q34 -72 43 -248h51v-250zM683 973l-71 -125l-168 96l75 125zM896 745l-81 -137l-181 109l-72 -117l-184 110l88 136l181 -109l71 113z" />
    <glyph glyph-name="u062c.jeem" unicode="&#xe02c;" horiz-adv-x="1155" 
d="M1149 -428q1 -3 1 -5q0 -14 -29 -44q-33 -35 -77 -64l-198 -133q-101 -67 -291 -67q-113 0 -190 28q-138 52 -210 203q-60 127 -63 293q-4 264 211 534q72 90 70 97q-6 12 -74 12q-151 0 -225 -76q-38 -38 -43 -35q-4 2 -4 11q0 50 70 165.5t116 141.5t119 26
q37 0 250 -30q185 -27 338 -19l149 8l-133 -258q-64 9 -133 9q-124 0 -221 -29q-115 -34 -232 -166q-133 -151 -143 -307q-12 -181 134 -280q122 -83 314 -89q139 -4 330 39q158 35 164 35zM816 -50l-84 -185l-217 90l78 185z" />
    <glyph glyph-name="u062c.initial.jeem" horiz-adv-x="1313" 
d="M1313 82q0 -60 -41 -70q-105 -25 -594 -32q-153 -3 -381 8l-297 12v250h45q75 0 225 -16.5t226 -16.5h247q146 2 156 21q10 18 -121 131q-143 122 -254 131q-80 6 -151 -19l-78 -26q-15 0 -15 10q0 16 28 56q37 54 98 91q78 50 174 50q74 0 155 -31q129 -49 295 -219
q149 -153 221 -158l62 -4v-168zM806 -419l-84 -185l-217 90l78 185z" />
    <glyph glyph-name="u062c.medial.jeem" horiz-adv-x="1313" 
d="M1358 0h-184q116 0 -121 -9q-232 -9 -375 -11q-155 -3 -381 8l-297 12v250h45q75 0 225 -16.5t226 -16.5h247q146 2 156 21q10 18 -121 131q-143 122 -254 131q-80 6 -151 -19l-78 -26q-15 0 -15 10q0 16 28 56q37 54 98 91q78 50 174 50q74 0 155 -31q129 -49 295 -219
q149 -153 221 -158l62 -4h45v-250zM808 -423l-84 -185l-217 90l78 185z" />
    <glyph glyph-name="u062c.final.jeem" horiz-adv-x="1155" 
d="M1200 0h-295q-127 0 -187 33q-82 44 -79 160q2 86 12 198q-129 -16 -225 -69q-124 -69 -194 -192.5t-70 -267.5q0 -112 80 -208q111 -135 321 -146q155 -7 307 17q88 14 199 47q73 22 78 16q1 -2 1 -4q0 -47 -222 -188l-101 -64q-94 -59 -268 -59q-112 0 -192 31
q-127 48 -207 159q-97 134 -95 322q2 173 74 334q45 100 129 213q64 85 62 92q-4 12 -64 14q-127 5 -233 -76q-52 -38 -58 -36q-4 2 -4 8q0 43 101 159q97 111 145 134q66 30 137 30q68 0 203 -26.5t205 -26.5q52 0 110 6l138 15l-66 -193l-215 -24q-10 -19 -10 -58
q0 -90 78 -102q12 -2 41 0q30 2 47 2h317v-250zM707 -149l-84 -185l-217 90l78 185z" />
    <glyph glyph-name="u062d.hah" unicode="&#xe02d;" horiz-adv-x="1155" 
d="M1149 -428q1 -3 1 -5q0 -14 -29 -44q-33 -35 -77 -64l-198 -133q-101 -67 -291 -67q-113 0 -190 28q-138 52 -210 203q-60 127 -63 293q-4 264 211 534q72 90 70 97q-6 12 -74 12q-151 0 -225 -76q-38 -38 -43 -35q-4 2 -4 11q0 50 70 165.5t116 141.5t119 26
q37 0 250 -30q185 -27 338 -19l149 8l-133 -258q-64 9 -133 9q-124 0 -221 -29q-115 -34 -232 -166q-133 -151 -143 -307q-12 -181 134 -280q122 -83 314 -89q139 -4 330 39q158 35 164 35z" />
    <glyph glyph-name="u062d.initial.hah" horiz-adv-x="1313" 
d="M1313 82q0 -60 -41 -70q-105 -25 -594 -32q-153 -3 -381 8l-297 12v250h45q75 0 225 -16.5t226 -16.5h247q146 2 156 21q10 18 -121 131q-143 122 -254 131q-80 6 -151 -19l-78 -26q-15 0 -15 10q0 16 28 56q37 54 98 91q78 50 174 50q74 0 155 -31q129 -49 295 -219
q149 -153 221 -158l62 -4v-168z" />
    <glyph glyph-name="u062d.medial.hah" horiz-adv-x="1313" 
d="M1358 0h-184q116 0 -121 -9q-232 -9 -375 -11q-155 -3 -381 8l-297 12v250h45q75 0 225 -16.5t226 -16.5h247q146 2 156 21q10 18 -121 131q-143 122 -254 131q-80 6 -151 -19l-78 -26q-15 0 -15 10q0 16 28 56q37 54 98 91q78 50 174 50q74 0 155 -31q129 -49 295 -219
q149 -153 221 -158l62 -4h45v-250z" />
    <glyph glyph-name="u062d.final.hah" horiz-adv-x="1155" 
d="M1200 0h-295q-127 0 -187 33q-82 44 -79 160q2 86 12 198q-129 -16 -225 -69q-124 -69 -194 -192.5t-70 -267.5q0 -112 80 -208q111 -135 321 -146q155 -7 307 17q88 14 199 47q73 22 78 16q1 -2 1 -4q0 -47 -222 -188l-101 -64q-94 -59 -268 -59q-112 0 -192 31
q-127 48 -207 159q-97 134 -95 322q2 173 74 334q45 100 129 213q64 85 62 92q-4 12 -64 14q-127 5 -233 -76q-52 -38 -58 -36q-4 2 -4 8q0 43 101 159q97 111 145 134q66 30 137 30q68 0 203 -26.5t205 -26.5q52 0 110 6l138 15l-66 -193l-215 -24q-10 -19 -10 -58
q0 -90 78 -102q12 -2 41 0q30 2 47 2h317v-250z" />
    <glyph glyph-name="u062e.khah" unicode="&#xe02e;" horiz-adv-x="1155" 
d="M1149 -428q1 -3 1 -5q0 -14 -29 -44q-33 -35 -77 -64l-198 -133q-101 -67 -291 -67q-113 0 -190 28q-138 52 -210 203q-60 127 -63 293q-4 264 211 534q72 90 70 97q-6 12 -74 12q-151 0 -225 -76q-38 -38 -43 -35q-4 2 -4 11q0 50 70 165.5t116 141.5t119 26
q37 0 250 -30q185 -27 338 -19l149 8l-133 -258q-64 9 -133 9q-124 0 -221 -29q-115 -34 -232 -166q-133 -151 -143 -307q-12 -181 134 -280q122 -83 314 -89q139 -4 330 39q158 35 164 35zM605 940l-84 -185l-217 90l78 185z" />
    <glyph glyph-name="u062e.initial.khah" horiz-adv-x="1313" 
d="M1313 82q0 -60 -41 -70q-105 -25 -594 -32q-153 -3 -381 8l-297 12v250h45q75 0 225 -16.5t226 -16.5h247q146 2 156 21q10 18 -121 131q-143 122 -254 131q-80 6 -151 -19l-78 -26q-15 0 -15 10q0 16 28 56q37 54 98 91q78 50 174 50q74 0 155 -31q129 -49 295 -219
q149 -153 221 -158l62 -4v-168zM774 1078l-84 -185l-217 90l78 185z" />
    <glyph glyph-name="u062e.medial.khah" horiz-adv-x="1313" 
d="M1358 0h-184q116 0 -121 -9q-232 -9 -375 -11q-155 -3 -381 8l-297 12v250h45q75 0 225 -16.5t226 -16.5h247q146 2 156 21q10 18 -121 131q-143 122 -254 131q-80 6 -151 -19l-78 -26q-15 0 -15 10q0 16 28 56q37 54 98 91q78 50 174 50q74 0 155 -31q129 -49 295 -219
q149 -153 221 -158l62 -4h45v-250zM774 1078l-84 -185l-217 90l78 185z" />
    <glyph glyph-name="u062e.final.khah" horiz-adv-x="1155" 
d="M1200 0h-295q-127 0 -187 33q-82 44 -79 160q2 86 12 198q-129 -16 -225 -69q-124 -69 -194 -192.5t-70 -267.5q0 -112 80 -208q111 -135 321 -146q155 -7 307 17q88 14 199 47q73 22 78 16q1 -2 1 -4q0 -47 -222 -188l-101 -64q-94 -59 -268 -59q-112 0 -192 31
q-127 48 -207 159q-97 134 -95 322q2 173 74 334q45 100 129 213q64 85 62 92q-4 12 -64 14q-127 5 -233 -76q-52 -38 -58 -36q-4 2 -4 8q0 43 101 159q97 111 145 134q66 30 137 30q68 0 203 -26.5t205 -26.5q52 0 110 6l138 15l-66 -193l-215 -24q-10 -19 -10 -58
q0 -90 78 -102q12 -2 41 0q30 2 47 2h317v-250zM661 1088l-84 -185l-217 90l78 185z" />
    <glyph glyph-name="u062f.dal" unicode="&#xe02f;" horiz-adv-x="770" 
d="M760 117q0 -112 -31 -119l-264 -57q-94 -21 -154 -21q-107 0 -157 60q-33 38 -33 133q0 78 18 157q18 76 31 74q5 0 10 -57q6 -64 23 -88q27 -39 129 -39q84 0 194 24q100 23 99 33q-19 126 -90 256q-59 107 -70 107l108 200q28 -34 50 -69q55 -95 94 -236
q43 -155 43 -358z" />
    <glyph glyph-name="u062f.final.dal" horiz-adv-x="770" 
d="M815 0h-82l-268 -59q-93 -21 -154 -21q-107 0 -157 60q-33 38 -33 133q0 78 18 157q18 76 31 74q5 0 10 -57q6 -64 23 -88q27 -39 129 -39q84 0 194 24q100 23 99 33q-19 126 -90 256q-59 107 -70 107l108 200q32 -39 50 -69q51 -91 94 -236q33 -112 37 -225h61v-250z
" />
    <glyph glyph-name="u0630.thal" unicode="&#xe030;" horiz-adv-x="770" 
d="M760 117q0 -112 -31 -119l-264 -57q-94 -21 -154 -21q-107 0 -157 60q-33 38 -33 133q0 78 18 157q18 76 31 74q5 0 10 -57q6 -64 23 -88q27 -39 129 -39q84 0 194 24q100 23 99 33q-19 126 -90 256q-59 107 -70 107l108 200q28 -34 50 -69q55 -95 94 -236
q43 -155 43 -358zM534 1079l-84 -185l-217 90l78 185z" />
    <glyph glyph-name="u0630.final.thal" horiz-adv-x="770" 
d="M815 0h-82l-268 -59q-93 -21 -154 -21q-107 0 -157 60q-33 38 -33 133q0 78 18 157q18 76 31 74q5 0 10 -57q6 -64 23 -88q27 -39 129 -39q84 0 194 24q100 23 99 33q-19 126 -90 256q-59 107 -70 107l108 200q32 -39 50 -69q51 -91 94 -236q33 -112 37 -225h61v-250z
M619 965l-84 -185l-217 90l78 185z" />
    <glyph glyph-name="u0631.reh" unicode="&#xe031;" horiz-adv-x="758" 
d="M752 100q0 -92 -23 -204q-41 -205 -176 -342q-121 -123 -238 -123q-15 0 -32 4q-110 25 -201 110q-70 66 -117 152q-39 71 -31 84q-3 -4 89 -53q106 -58 206 -58q236 0 406 310q6 11 6 26q0 63 -92 166q-65 73 -98 96l106 228q101 -99 125 -136q70 -105 70 -260z" />
    <glyph glyph-name="u0631.final.reh" horiz-adv-x="758" 
d="M803 0h-58q0 -19 -16 -104q-39 -204 -176 -342q-122 -123 -238 -123q-15 0 -32 4q-110 25 -201 110q-70 66 -117 152q-39 71 -31 84q-3 -4 89 -53q106 -58 206 -58q236 0 406 310q6 11 6 26q0 63 -92 166q-65 73 -98 96l106 228q93 -73 125 -134q39 -74 49 -112h72v-250z
" />
    <glyph glyph-name="u0632.zain" unicode="&#xe032;" horiz-adv-x="758" 
d="M752 100q0 -92 -23 -204q-41 -205 -176 -342q-121 -123 -238 -123q-15 0 -32 4q-110 25 -201 110q-70 66 -117 152q-39 71 -31 84q-3 -4 89 -53q106 -58 206 -58q236 0 406 310q6 11 6 26q0 63 -92 166q-65 73 -98 96l106 228q101 -99 125 -136q70 -105 70 -260zM531 976
l-84 -185l-217 90l78 185z" />
    <glyph glyph-name="u0632.final.zain" horiz-adv-x="758" 
d="M803 0h-58q0 -19 -16 -104q-39 -204 -176 -342q-122 -123 -238 -123q-15 0 -32 4q-110 25 -201 110q-70 66 -117 152q-39 71 -31 84q-3 -4 89 -53q106 -58 206 -58q236 0 406 310q6 11 6 26q0 63 -92 166q-65 73 -98 96l106 228q93 -73 125 -134q39 -74 49 -112h72v-250z
M515 681l-84 -185l-217 90l78 185z" />
    <glyph glyph-name="u0633.seen" unicode="&#xe033;" horiz-adv-x="1833" 
d="M1831 262q-5 -179 -8 -203q-7 -43 -29 -51q-51 -18 -121 -18q-115 0 -262 47q-132 42 -127 47q-100 -85 -258 -85q-17 0 -35 1q0 -31 -57 -158q-73 -160 -156 -221q-63 -46 -179 -75q-104 -25 -193 -25q-322 0 -383 264q-15 62 -15 131q0 122 45 248q36 101 88 176
q47 68 62 63q2 -2 2 -6q0 -18 -58.5 -148.5t-58.5 -228.5q0 -268 340 -268q102 0 225 31q34 8 111 38q92 35 94 48q4 20 4 47q0 178 -143 426l160 195q8 -18 51 -105q32 -66 59 -188l201 2q58 0 67 76q5 33 -4 84q0 49 81 116q75 62 81 56q6 -11 6 -46q0 -110 -57 -237
q-4 -13 68 -45q81 -37 155 -37q105 0 105 59q0 41 -25 109q-21 58 -29 65l152 164q9 -17 22 -94q22 -121 19 -254z" />
    <glyph glyph-name="u0633.initial.seen" horiz-adv-x="1438" 
d="M1427 262l-6 -203q-4 -42 -28 -51q-51 -18 -117 -18q-108 0 -262 43q-133 37 -131 41q-122 -83 -314 -78q-160 4 -227 22q-12 2 -96 41q-21 -20 -96 -45q-45 -14 -105 -14h-45v250h45q186 0 209 22q9 10 6 84q-3 68 -6 78l147 156q9 -33 9 -78q0 -112 -48 -231
q-13 -35 211 -35h179q106 0 106 65q0 105 -2 107q0 78 154 162q6 -28 6 -61q0 -91 -47 -220q-5 -12 65 -41q80 -33 156 -33q42 0 82 13q14 4 14 36q0 29 -16 91q-18 66 -33 81l143 164q13 -24 27 -94q25 -119 20 -254z" />
    <glyph glyph-name="u0633.medial.seen" horiz-adv-x="1438" 
d="M1483 0h-68l-16 12q-58 -20 -131 -20q-101 0 -254 43q-133 37 -131 39q-122 -83 -314 -78q-160 4 -227 22q-12 2 -96 41q-21 -20 -96 -45q-45 -14 -105 -14h-45v250h45q186 0 209 22q9 10 6 84q-3 68 -6 78l147 156q9 -33 9 -78q0 -112 -48 -231q-13 -35 211 -35h179
q106 0 106 65q0 105 -2 107q0 78 154 162q6 -28 6 -61q0 -91 -47 -220q-5 -12 65 -41q80 -33 156 -33q42 0 82 13q14 4 14 36q0 29 -16 91q-18 66 -33 81l143 164q13 -24 27 -94q24 -118 20 -254q0 -4 -2 -6v-6h58v-250z" />
    <glyph glyph-name="u0633.final.seen" horiz-adv-x="1833" 
d="M1878 0h-102q-27 0 -76 -4q-104 -10 -268 39q-154 45 -148 49q-76 -64 -190 -80l-103 -4q0 -31 -57 -158q-73 -160 -156 -221q-63 -46 -179 -75q-104 -25 -193 -25q-322 0 -383 264q-15 62 -15 131q0 122 45 248q36 101 88 176q47 68 62 63q2 -2 2 -6q0 -16 -58.5 -147.5
t-58.5 -229.5q0 -268 340 -268q102 0 225 31q34 8 111 38q92 35 94 48q4 20 4 47q0 178 -143 426l160 195q8 -18 51 -105q32 -66 59 -188l201 2q58 0 67 76q5 33 -4 84q0 49 81 116q75 62 81 56q6 -11 6 -46q0 -110 -57 -237q-4 -13 68 -45q81 -37 155 -37q105 0 105 59
q0 41 -25 109q-21 58 -29 65l152 164q9 -17 22 -94q23 -123 19 -254q0 -4 -2 -12h49v-250z" />
    <glyph glyph-name="u0634.sheen" unicode="&#xe034;" horiz-adv-x="1833" 
d="M1831 262q-5 -179 -8 -203q-7 -43 -29 -51q-51 -18 -121 -18q-115 0 -262 47q-132 42 -127 47q-100 -85 -258 -85q-17 0 -35 1q0 -31 -57 -158q-73 -160 -156 -221q-63 -46 -179 -75q-104 -25 -193 -25q-322 0 -383 264q-15 62 -15 131q0 122 45 248q36 101 88 176
q47 68 62 63q2 -2 2 -6q0 -18 -58.5 -148.5t-58.5 -228.5q0 -268 340 -268q102 0 225 31q34 8 111 38q92 35 94 48q4 20 4 47q0 178 -143 426l160 195q8 -18 51 -105q32 -66 59 -188l201 2q58 0 67 76q5 33 -4 84q0 49 81 116q75 62 81 56q6 -11 6 -46q0 -110 -57 -237
q-4 -13 68 -45q81 -37 155 -37q105 0 105 59q0 41 -25 109q-21 58 -29 65l152 164q9 -17 22 -94q22 -121 19 -254zM1516 1101l-71 -125l-168 96l75 125zM1729 873l-81 -137l-181 109l-72 -117l-184 110l88 136l181 -109l71 113z" />
    <glyph glyph-name="u0634.initial.sheen" horiz-adv-x="1438" 
d="M1427 262l-6 -203q-4 -42 -28 -51q-51 -18 -117 -18q-108 0 -262 43q-133 37 -131 41q-122 -83 -314 -78q-160 4 -227 22q-12 2 -96 41q-21 -20 -96 -45q-45 -14 -105 -14h-45v250h45q186 0 209 22q9 10 6 84q-3 68 -6 78l147 156q9 -33 9 -78q0 -112 -48 -231
q-13 -35 211 -35h179q106 0 106 65q0 105 -2 107q0 78 154 162q6 -28 6 -61q0 -91 -47 -220q-5 -12 65 -41q80 -33 156 -33q42 0 82 13q14 4 14 36q0 29 -16 91q-18 66 -33 81l143 164q13 -24 27 -94q25 -119 20 -254zM1103 1099l-71 -125l-168 96l75 125zM1316 871
l-81 -137l-181 109l-72 -117l-184 110l88 136l181 -109l71 113z" />
    <glyph glyph-name="u0634.medial.sheen" horiz-adv-x="1438" 
d="M1483 0h-68l-16 12q-58 -20 -131 -20q-101 0 -254 43q-133 37 -131 39q-122 -83 -314 -78q-160 4 -227 22q-12 2 -96 41q-21 -20 -96 -45q-45 -14 -105 -14h-45v250h45q186 0 209 22q9 10 6 84q-3 68 -6 78l147 156q9 -33 9 -78q0 -112 -48 -231q-13 -35 211 -35h179
q106 0 106 65q0 105 -2 107q0 78 154 162q6 -28 6 -61q0 -91 -47 -220q-5 -12 65 -41q80 -33 156 -33q42 0 82 13q14 4 14 36q0 29 -16 91q-18 66 -33 81l143 164q13 -24 27 -94q24 -118 20 -254q0 -4 -2 -6v-6h58v-250zM1106 1094l-71 -125l-168 96l75 125zM1319 866
l-81 -137l-181 109l-72 -117l-184 110l88 136l181 -109l71 113z" />
    <glyph glyph-name="u0634.final.sheen" horiz-adv-x="1833" 
d="M1878 0h-102q-27 0 -76 -4q-104 -10 -268 39q-154 45 -148 49q-76 -64 -190 -80l-103 -4q0 -31 -57 -158q-73 -160 -156 -221q-63 -46 -179 -75q-104 -25 -193 -25q-322 0 -383 264q-15 62 -15 131q0 122 45 248q36 101 88 176q47 68 62 63q2 -2 2 -6q0 -16 -58.5 -147.5
t-58.5 -229.5q0 -268 340 -268q102 0 225 31q34 8 111 38q92 35 94 48q4 20 4 47q0 178 -143 426l160 195q8 -18 51 -105q32 -66 59 -188l201 2q58 0 67 76q5 33 -4 84q0 49 81 116q75 62 81 56q6 -11 6 -46q0 -110 -57 -237q-4 -13 68 -45q81 -37 155 -37q105 0 105 59
q0 41 -25 109q-21 58 -29 65l152 164q9 -17 22 -94q23 -123 19 -254q0 -4 -2 -12h49v-250zM1517 1096l-71 -125l-168 96l75 125zM1730 868l-81 -137l-181 109l-72 -117l-184 110l88 136l181 -109l71 113z" />
    <glyph glyph-name="u0635.sad" unicode="&#xe035;" horiz-adv-x="2218" 
d="M2204 379q11 -41 -26 -159q-35 -110 -67 -152q-65 -91 -481 -91q-85 0 -223 7l-414 18q0 -34 -57 -160q-73 -159 -158 -221q-63 -46 -179 -75q-104 -25 -193 -25q-322 0 -383 264q-15 62 -15 131q0 122 45 248q36 101 88 176q47 68 62 63q2 -2 2 -6q0 -20 -58.5 -169
t-58.5 -208q0 -268 340 -268q102 0 225 31q34 8 111 38q92 35 94 48q4 20 4 47q0 178 -143 426l160 195q8 -18 51 -105q36 -75 61 -188l125 10q60 5 316.5 216t320.5 216q153 11 299 -106q122 -98 152 -201zM2071 276q5 40 -109 107q-122 71 -221 70q-228 -3 -404 -203
q189 -33 451 -33q274 0 283 59z" />
    <glyph glyph-name="u0635.initial.sad" horiz-adv-x="1788" 
d="M1784 379q11 -41 -27 -159q-36 -110 -67 -152q-62 -84 -461 -84q17 0 -242 4l-518 8q-50 1 -145 31t-84 30q48 0 -52 -28.5t-141 -28.5h-47v250h49q152 0 105 -2q61 2 96 28q4 5 2 74q-2 70 -8 80l149 156q8 -94 -6 -185q-2 -16 -19.5 -69t-17.5 -58q6 -19 102 -27
q76 -7 117 -3l125 10q63 5 319 216t320 216q151 11 297 -106q125 -101 154 -201zM1651 276q5 41 -109 107q-124 72 -223 70q-109 -3 -211 -54q-72 -36 -141 -98q-57 -51 -49 -51q186 -33 450 -33q274 0 283 59z" />
    <glyph glyph-name="u0635.medial.sad" horiz-adv-x="1788" 
d="M1829 0h-127l-37 43q-36 -18 -49 -23q-59 -20 -154 -28q-109 -10 -475 -4l-518 8q-50 1 -145 31t-84 30q48 0 -52 -28.5t-141 -28.5h-47v250h49q152 0 105 -2q61 2 96 28q4 5 2 74q-2 70 -8 80l149 156q8 -94 -6 -185q-2 -16 -19.5 -69t-17.5 -58q6 -19 102 -27
q76 -7 117 -3l125 10q63 5 319 216t320 216q151 11 297 -106q125 -101 154 -201q2 -7 2 -21q0 -41 -23 -108h66v-250zM1651 276q5 41 -109 107q-124 72 -223 70q-109 -3 -211 -54q-72 -36 -141 -98q-57 -51 -49 -51q186 -33 450 -33q274 0 283 59z" />
    <glyph glyph-name="u0635.final.sad" horiz-adv-x="2218" 
d="M2263 0h-127l-41 47l-47 -22q-64 -24 -152 -33q-199 -21 -489 -8l-414 18q0 -34 -57 -160q-73 -159 -158 -221q-63 -46 -179 -75q-104 -25 -193 -25q-322 0 -383 264q-15 62 -15 131q0 122 45 248q36 101 88 176q47 68 62 63q2 -2 2 -6q0 -16 -58.5 -158t-58.5 -219
q0 -268 340 -268q102 0 225 31q34 8 111 38q92 35 94 48q4 20 4 47q0 178 -143 426l160 195q8 -18 51 -105q30 -62 61 -182l125 6q60 3 317.5 214.5t319.5 215.5q152 11 297 -106q122 -99 154 -201q12 -39 -15 -129h74v-250zM2071 276q5 40 -109 107q-122 71 -221 70
q-228 -3 -404 -203q189 -33 451 -33q274 0 283 59z" />
    <glyph glyph-name="u0636.dad" unicode="&#xe036;" horiz-adv-x="2218" 
d="M2204 379q11 -41 -26 -159q-35 -110 -67 -152q-65 -91 -481 -91q-85 0 -223 7l-414 18q0 -34 -57 -160q-73 -159 -158 -221q-63 -46 -179 -75q-104 -25 -193 -25q-322 0 -383 264q-15 62 -15 131q0 122 45 248q36 101 88 176q47 68 62 63q2 -2 2 -6q0 -20 -58.5 -169
t-58.5 -208q0 -268 340 -268q102 0 225 31q34 8 111 38q92 35 94 48q4 20 4 47q0 178 -143 426l160 195q8 -18 51 -105q36 -75 61 -188l125 10q60 5 316.5 216t320.5 216q153 11 299 -106q122 -98 152 -201zM2071 276q5 40 -109 107q-122 71 -221 70q-228 -3 -404 -203
q189 -33 451 -33q274 0 283 59zM1837 1057l-84 -185l-217 90l78 185z" />
    <glyph glyph-name="u0636.initial.dad" horiz-adv-x="1788" 
d="M1784 379q11 -41 -27 -159q-36 -110 -67 -152q-62 -84 -461 -84q17 0 -242 4l-518 8q-50 1 -145 31t-84 30q48 0 -52 -28.5t-141 -28.5h-47v250h49q152 0 105 -2q61 2 96 28q4 5 2 74q-2 70 -8 80l149 156q8 -94 -6 -185q-2 -16 -19.5 -69t-17.5 -58q6 -19 102 -27
q76 -7 117 -3l125 10q63 5 319 216t320 216q151 11 297 -106q125 -101 154 -201zM1651 276q5 41 -109 107q-124 72 -223 70q-109 -3 -211 -54q-72 -36 -141 -98q-57 -51 -49 -51q186 -33 450 -33q274 0 283 59zM1401 1066l-84 -185l-217 90l78 185z" />
    <glyph glyph-name="u0636.medial.dad" horiz-adv-x="1788" 
d="M1829 0h-127l-37 43q-36 -18 -49 -23q-59 -20 -154 -28q-109 -10 -475 -4l-518 8q-50 1 -145 31t-84 30q48 0 -52 -28.5t-141 -28.5h-47v250h49q152 0 105 -2q61 2 96 28q4 5 2 74q-2 70 -8 80l149 156q8 -94 -6 -185q-2 -16 -19.5 -69t-17.5 -58q6 -19 102 -27
q76 -7 117 -3l125 10q63 5 319 216t320 216q151 11 297 -106q125 -101 154 -201q2 -7 2 -21q0 -41 -23 -108h66v-250zM1651 276q5 41 -109 107q-124 72 -223 70q-109 -3 -211 -54q-72 -36 -141 -98q-57 -51 -49 -51q186 -33 450 -33q274 0 283 59zM1390 1069l-84 -185
l-217 90l78 185z" />
    <glyph glyph-name="u0636.final.dad" horiz-adv-x="2218" 
d="M2263 0h-127l-41 47l-47 -22q-64 -24 -152 -33q-199 -21 -489 -8l-414 18q0 -34 -57 -160q-73 -159 -158 -221q-63 -46 -179 -75q-104 -25 -193 -25q-322 0 -383 264q-15 62 -15 131q0 122 45 248q36 101 88 176q47 68 62 63q2 -2 2 -6q0 -16 -58.5 -158t-58.5 -219
q0 -268 340 -268q102 0 225 31q34 8 111 38q92 35 94 48q4 20 4 47q0 178 -143 426l160 195q8 -18 51 -105q30 -62 61 -182l125 6q60 3 317.5 214.5t319.5 215.5q152 11 297 -106q122 -99 154 -201q12 -39 -15 -129h74v-250zM2071 276q5 40 -109 107q-122 71 -221 70
q-228 -3 -404 -203q189 -33 451 -33q274 0 283 59zM1826 1054l-84 -185l-217 90l78 185z" />
    <glyph glyph-name="u0637.tah" unicode="&#xe037;" horiz-adv-x="1178" 
d="M1180 338q0 -59 -21 -123l-35 -109q-21 -67 -125 -90q-165 -36 -446 -36q-147 0 -328 10l-170 10h-67q-62 35 -76 80q-9 28 -12 88q-3 51 0 57h145q46 0 102 15q78 19 89 49q18 51 18 209q0 139 -21 280q-30 212 -30 199q0 19 60 94t81 88q33 -120 86 -180q10 -11 39 -29
q23 -13 23 -22l-5 -8l-75 -99q5 -45 6 -129q1 -108 -10 -166q-9 -45 -41 -135q-27 -74 -23 -80l193 148q206 158 282 172q33 6 70 6q129 0 210 -84.5t81 -214.5zM1067 287q0 66 -123 108q-111 39 -211 33q-35 -2 -186.5 -90.5t-151.5 -101.5q0 -27 355 -27q287 0 311 49
q6 13 6 29z" />
    <glyph glyph-name="u0637.initial.tah" horiz-adv-x="1178" 
d="M1180 338q0 -59 -21 -123l-35 -109q-21 -67 -125 -90q-165 -36 -446 -36q-147 0 -328 10l-170 10h-55v250h123q98 0 113 39q18 50 18 209q0 139 -21 280q-30 212 -30 199q0 19 60 94t81 88q33 -120 86 -180q10 -11 39 -29q23 -13 23 -22l-5 -8l-75 -99q5 -45 6 -129
q1 -108 -10 -166q-9 -45 -41 -135q-27 -74 -23 -80l193 148q206 158 282 172q33 6 70 6q129 0 210 -84.5t81 -214.5zM1067 287q0 66 -123 108q-111 39 -211 33q-35 -2 -186.5 -90.5t-151.5 -101.5q0 -27 355 -27q287 0 311 49q6 13 6 29z" />
    <glyph glyph-name="u0637.medial.tah" horiz-adv-x="1178" 
d="M1223 0h-127l-33 39q-14 -10 -64 -23q-150 -36 -444 -36q-147 0 -329 10l-171 10h-55v250h45q176 0 191 39q18 50 18 209q0 139 -21 280q-30 212 -30 199q0 19 60 94t81 88q33 -120 86 -180q10 -11 39 -29q23 -13 23 -22l-5 -8l-75 -99q5 -45 6 -129q1 -108 -10 -166
q-9 -45 -41 -135q-27 -74 -23 -80l193 148q207 158 282 172q34 6 74 6q191 0 266 -182q16 -40 19 -113q2 -64 -9 -92h54v-250zM1067 287q0 66 -123 108q-111 39 -211 33q-35 -2 -186.5 -90.5t-151.5 -101.5q0 -27 355 -27q287 0 311 49q6 13 6 29z" />
    <glyph glyph-name="u0637.final.tah" horiz-adv-x="1178" 
d="M1223 0h-127l-33 39q-14 -10 -64 -23q-150 -36 -444 -36q-147 0 -329 10l-171 10h-67q-62 35 -76 80q-9 28 -12 88q-3 51 0 57h145q46 0 102 15q78 19 89 49q18 51 18 209q0 139 -21 280q-30 212 -30 199q0 19 60 94t81 88q33 -120 86 -180q10 -11 39 -29q23 -13 23 -22
l-5 -8l-75 -99q5 -45 6 -129q1 -108 -10 -166q-9 -45 -41 -135q-27 -74 -23 -80l193 148q207 158 282 172q34 6 74 6q190 0 266 -182q18 -42 19 -109q1 -64 -11 -96h56v-250zM1067 287q0 66 -123 108q-111 39 -211 33q-35 -2 -186.5 -90.5t-151.5 -101.5q0 -27 355 -27
q287 0 311 49q6 13 6 29z" />
    <glyph glyph-name="u0638.zah" unicode="&#xe038;" horiz-adv-x="1178" 
d="M1180 338q0 -59 -21 -123l-35 -109q-21 -67 -125 -90q-165 -36 -446 -36q-147 0 -328 10l-170 10h-67q-62 35 -76 80q-9 28 -12 88q-3 51 0 57h145q46 0 102 15q78 19 89 49q18 51 18 209q0 139 -21 280q-30 212 -30 199q0 19 60 94t81 88q33 -120 86 -180q10 -11 39 -29
q23 -13 23 -22l-5 -8l-75 -99q5 -45 6 -129q1 -108 -10 -166q-9 -45 -41 -135q-27 -74 -23 -80l193 148q206 158 282 172q33 6 70 6q129 0 210 -84.5t81 -214.5zM1067 287q0 66 -123 108q-111 39 -211 33q-35 -2 -186.5 -90.5t-151.5 -101.5q0 -27 355 -27q287 0 311 49
q6 13 6 29zM1079 1007l-84 -185l-217 90l78 185z" />
    <glyph glyph-name="u0638.initial.zah" horiz-adv-x="1178" 
d="M1180 338q0 -59 -21 -123l-35 -109q-21 -67 -125 -90q-165 -36 -446 -36q-147 0 -328 10l-170 10h-55v250h123q98 0 113 39q18 50 18 209q0 139 -21 280q-30 212 -30 199q0 19 60 94t81 88q33 -120 86 -180q10 -11 39 -29q23 -13 23 -22l-5 -8l-75 -99q5 -45 6 -129
q1 -108 -10 -166q-9 -45 -41 -135q-27 -74 -23 -80l193 148q206 158 282 172q33 6 70 6q129 0 210 -84.5t81 -214.5zM1067 287q0 66 -123 108q-111 39 -211 33q-35 -2 -186.5 -90.5t-151.5 -101.5q0 -27 355 -27q287 0 311 49q6 13 6 29zM1079 1009l-84 -185l-217 90l78 185
z" />
    <glyph glyph-name="u0638.medial.zah" horiz-adv-x="1178" 
d="M1223 0h-127l-33 39q-14 -10 -64 -23q-150 -36 -444 -36q-147 0 -329 10l-171 10h-55v250h45q176 0 191 39q18 50 18 209q0 139 -21 280q-30 212 -30 199q0 19 60 94t81 88q33 -120 86 -180q10 -11 39 -29q23 -13 23 -22l-5 -8l-75 -99q5 -45 6 -129q1 -108 -10 -166
q-9 -45 -41 -135q-27 -74 -23 -80l193 148q207 158 282 172q34 6 74 6q191 0 266 -182q16 -40 19 -113q2 -64 -9 -92h54v-250zM1067 287q0 66 -123 108q-111 39 -211 33q-35 -2 -186.5 -90.5t-151.5 -101.5q0 -27 355 -27q287 0 311 49q6 13 6 29zM1075 1009l-84 -185
l-217 90l78 185z" />
    <glyph glyph-name="u0638.final.zah" horiz-adv-x="1178" 
d="M1223 0h-127l-33 39q-14 -10 -64 -23q-150 -36 -444 -36q-147 0 -329 10l-171 10h-67q-62 35 -76 80q-9 28 -12 88q-3 51 0 57h145q46 0 102 15q78 19 89 49q18 51 18 209q0 139 -21 280q-30 212 -30 199q0 19 60 94t81 88q33 -120 86 -180q10 -11 39 -29q23 -13 23 -22
l-5 -8l-75 -99q5 -45 6 -129q1 -108 -10 -166q-9 -45 -41 -135q-27 -74 -23 -80l193 148q207 158 282 172q34 6 74 6q190 0 266 -182q18 -42 19 -109q1 -64 -11 -96h56v-250zM1067 287q0 66 -123 108q-111 39 -211 33q-35 -2 -186.5 -90.5t-151.5 -101.5q0 -27 355 -27
q287 0 311 49q6 13 6 29zM1076 1007l-84 -185l-217 90l78 185z" />
    <glyph glyph-name="u0639.ain" unicode="&#xe039;" horiz-adv-x="1018" 
d="M1016 -530q6 -15 -78 -70q-99 -65 -201 -105q-133 -51 -237 -51q-231 2 -359 118q-135 123 -133 351q2 170 98 336q72 124 130 162q-62 39 -105 131q-10 21 29 125q46 127 110 203q89 105 195 110q87 5 186 -69q90 -68 90 -113q0 -16 -14 -16t-71 16t-91 16
q-127 0 -225 -120q-4 -7 -4 -13q0 -15 59 -57l92 -66q283 84 377 84q10 0 15 -2q8 -5 -31 -115.5t-45 -113.5q-447 -57 -584 -236q-94 -122 -94 -225q0 -141 168 -209q194 -78 485 -78q64 0 140 5l83 4q13 0 15 -2z" />
    <glyph glyph-name="u0639.initial.ain" horiz-adv-x="995" 
d="M977 305q2 -1 2 -5q0 -30 -117 -232q-82 -7 -301 -31q-291 -37 -401 -37h-158l-2 250h90q26 0 78 -6t78 -6q20 0 26 8q6 12 -39 78q-51 75 -53 143q-2 73 105 192q127 143 253 143q152 0 255 -198q38 -74 28 -86q-5 6 -51 41q-69 51 -162 51t-207 -47q-18 -7 -18 -28
q0 -53 103 -148q88 -80 153 -113q16 -8 57 -8q63 0 178 21z" />
    <glyph glyph-name="u0639.medial.ain" horiz-adv-x="950" 
d="M995 0h-67q-119 0 -192 24q-89 29 -161 105q-90 -58 -165 -82q-61 -19 -181 -35q-96 -12 -143 -12h-86v250h172q122 0 217 26q80 23 80 41q0 21 -68 76q-75 62 -135 62q-12 0 -40 -8q-17 -4 -25 -4q-5 0 -6.5 1.5t-1.5 4.5q0 20 59 123q70 122 78 126q78 52 176 52
q100 0 188 -52q96 -56 123 -147q16 -51 -39 -149q-53 -93 -59 -87q15 -32 84 -51q51 -14 94 -14h98v-250z" />
    <glyph glyph-name="u0639.final.ain" horiz-adv-x="950" 
d="M995 0h-82q-346 0 -487 221q-65 -29 -150 -149q-110 -157 -110 -318q0 -272 381 -272q108 0 262 26l123 21q2 -2 2 -5q0 -16 -53 -73q-181 -191 -414 -199q-217 -6 -332 112t-115 337q0 214 146 444q99 157 156 195q-11 16 -21 31q-27 26 -86 39q-10 -3 -24 -3
q-18 0 -41 5q-11 8 58 122q66 110 77 117q70 51 168 51q70 0 136 -27q77 -32 103 -87q15 -30 15 -60q0 -56 -48 -120q-34 -48 -63 -66q51 -51 113 -74q49 -18 190 -18h96v-250z" />
    <glyph glyph-name="u063a.ghain" unicode="&#xe03a;" horiz-adv-x="1018" 
d="M1016 -530q6 -15 -78 -70q-99 -65 -201 -105q-133 -51 -237 -51q-231 2 -359 118q-135 123 -133 351q2 170 98 336q72 124 130 162q-62 39 -105 131q-10 21 29 125q46 127 110 203q89 105 195 110q87 5 186 -69q90 -68 90 -113q0 -16 -14 -16t-71 16t-91 16
q-127 0 -225 -120q-4 -7 -4 -13q0 -15 59 -57l92 -66q283 84 377 84q10 0 15 -2q8 -5 -31 -115.5t-45 -113.5q-447 -57 -584 -236q-94 -122 -94 -225q0 -141 168 -209q194 -78 485 -78q64 0 140 5l83 4q13 0 15 -2zM595 1070l-84 -185l-217 90l78 185z" />
    <glyph glyph-name="u063a.initial.ghain" horiz-adv-x="995" 
d="M659 1065l-73 -162l-191 82l70 162zM977 305q2 -1 2 -5q0 -30 -117 -232q-82 -7 -301 -31q-291 -37 -401 -37h-158l-2 250h90q26 0 78 -6t78 -6q20 0 26 8q6 12 -39 78q-51 75 -53 143q-2 73 105 192q127 143 253 143q152 0 255 -198q38 -74 28 -86q-5 6 -51 41
q-69 51 -162 51t-207 -47q-18 -7 -18 -28q0 -53 103 -148q88 -80 153 -113q16 -8 57 -8q63 0 178 21z" />
    <glyph glyph-name="u063a.medial.ghain" horiz-adv-x="950" 
d="M604 1065l-72 -162l-190 82l68 162zM995 0h-67q-119 0 -192 24q-89 29 -161 105q-90 -58 -165 -82q-61 -19 -181 -35q-96 -12 -143 -12h-86v250h172q122 0 217 26q80 23 80 41q0 21 -68 76q-75 62 -135 62q-12 0 -40 -8q-17 -4 -25 -4q-5 0 -6.5 1.5t-1.5 4.5
q0 20 59 123q70 122 78 126q78 52 176 52q100 0 188 -52q96 -56 123 -147q16 -51 -39 -149q-53 -93 -59 -87q15 -32 84 -51q51 -14 94 -14h98v-250z" />
    <glyph glyph-name="u063a.final.ghain" horiz-adv-x="950" 
d="M995 0h-82q-346 0 -487 221q-65 -29 -150 -149q-110 -157 -110 -318q0 -272 381 -272q108 0 262 26l123 21q2 -2 2 -5q0 -16 -53 -73q-181 -191 -414 -199q-217 -6 -332 112t-115 337q0 214 146 444q99 157 156 195q-11 16 -21 31q-27 26 -86 39q-10 -3 -24 -3
q-18 0 -41 5q-11 8 58 122q66 110 77 117q70 51 168 51q70 0 136 -27q77 -32 103 -87q15 -30 15 -60q0 -56 -48 -120q-34 -48 -63 -66q51 -51 113 -74q49 -18 190 -18h96v-250zM557 1071l-84 -185l-217 90l78 185z" />
    <glyph glyph-name="u063b.kehehWith2DotsAbove" unicode="&#xe03b;" horiz-adv-x="1245" 
d="M1231 266q0 -41 -17 -124q-19 -99 -40 -103q-313 -68 -666 -68q-298 0 -375 58q-117 87 -117 219q0 72 33 139q28 58 41 53q37 0 62 -74q28 -84 57 -98q87 -43 457 -43q168 0 303 13q51 4 51 22q0 6 -6 12q-80 81 -236 183q-139 91 -145 84l-29 -27l-94 90q-14 14 -14 53
q0 73 45 101q269 164 669 284l-41 -161q-453 -132 -448 -177q1 -11 80 -59q106 -65 190 -129q136 -103 236 -225q4 -4 4 -23zM776 1061l-111 -131l-145 123l-103 -123l-149 127l110 131l144 -118l102 121z" />
    <glyph glyph-name="u063b.initial.kehehWith2DotsAbove" horiz-adv-x="815" 
d="M813 268q0 -58 -16 -135q-19 -90 -39 -94q-223 -49 -459 -49q-42 0 -127 5t-127 5h-45v250h45q-77 0 97 -10.5t231 -10.5q90 0 180 9q51 4 51 22q0 6 -6 12q-85 85 -236 185q-125 83 -143 83q-2 0 -2 -1l-29 -27l-96 90q-14 14 -14 51q0 74 47 103q266 161 670 284
l-41 -161q-453 -131 -449 -177q0 -13 80 -61q120 -72 190 -127q135 -103 236 -225q2 -4 2 -21zM500 1116l-111 -131l-145 123l-103 -123l-149 127l110 131l144 -118l102 121z" />
    <glyph glyph-name="u063b.medial.kehehWith2DotsAbove" horiz-adv-x="815" 
d="M860 0h-119l-36 27q-35 -7 -142 -21q-129 -16 -260 -16q-43 0 -129 5t-129 5h-45v250h45q-77 0 97 -10.5t231 -10.5q90 0 180 9q51 4 51 22q0 6 -6 12q-85 85 -236 185q-125 83 -143 83q-2 0 -2 -1l-29 -27l-96 90q-14 14 -14 51q0 74 47 103q266 161 670 284l-41 -161
q-453 -131 -449 -177q0 -11 80 -59q107 -65 190 -129q135 -104 236 -225q8 -10 -4 -39h53v-250zM500 1116l-111 -131l-145 123l-103 -123l-149 127l110 131l144 -118l102 121z" />
    <glyph glyph-name="u063b.final.kehehWith2DotsAbove" horiz-adv-x="1245" 
d="M1290 0h-131l-39 27q-22 -5 -141 -21q-267 -35 -496 -35q-273 0 -350 58q-113 84 -113 215q0 75 35 147q31 63 45 60q9 -3 13 -45q4 -54 18 -82q23 -47 78 -64q114 -35 481 -35q154 0 279 13q51 5 51 22q0 6 -6 12q-80 81 -236 183q-139 91 -145 84l-29 -27l-94 90
q-14 14 -14 53q0 73 45 101q269 164 669 284l-41 -161q-453 -132 -448 -177q1 -11 80 -59q106 -65 190 -129q136 -103 236 -225q4 -5 4 -13q0 -11 -6 -26h65v-250zM798 1070l-111 -131l-145 123l-103 -123l-149 127l110 131l144 -118l102 121z" />
    <glyph glyph-name="u063c.kehehWith3DotsBelow" unicode="&#xe03c;" horiz-adv-x="1245" 
d="M1231 266q0 -41 -17 -124q-19 -99 -40 -103q-313 -68 -666 -68q-298 0 -375 58q-117 87 -117 219q0 72 33 139q28 58 41 53q37 0 62 -74q28 -84 57 -98q87 -43 457 -43q168 0 303 13q51 4 51 22q0 6 -6 12q-80 81 -236 183q-139 91 -145 84l-29 -27l-94 90q-14 14 -14 53
q0 73 45 101q269 164 669 284l-41 -161q-453 -132 -448 -177q1 -11 80 -59q106 -65 190 -129q136 -103 236 -225q4 -4 4 -23zM829 -556l-71 -125l-168 96l75 125zM882 -334l-81 -137l-181 109l-72 -117l-184 110l88 136l181 -109l71 113z" />
    <glyph glyph-name="u063c.initial.kehehWith3DotsBelow" horiz-adv-x="815" 
d="M813 268q0 -58 -16 -135q-19 -90 -39 -94q-223 -49 -459 -49q-42 0 -127 5t-127 5h-45v250h45q-77 0 97 -10.5t231 -10.5q90 0 180 9q51 4 51 22q0 6 -6 12q-85 85 -236 185q-125 83 -143 83q-2 0 -2 -1l-29 -27l-96 90q-14 14 -14 51q0 74 47 103q266 161 670 284
l-41 -161q-453 -131 -449 -177q0 -13 80 -61q120 -72 190 -127q135 -103 236 -225q2 -4 2 -21zM596 -537l-71 -125l-168 96l75 125zM649 -315l-81 -137l-181 109l-72 -117l-184 110l88 136l181 -109l71 113z" />
    <glyph glyph-name="u063c.medial.kehehWith3DotsBelow" horiz-adv-x="815" 
d="M860 0h-119l-36 27q-35 -7 -142 -21q-129 -16 -260 -16q-43 0 -129 5t-129 5h-45v250h45q-77 0 97 -10.5t231 -10.5q90 0 180 9q51 4 51 22q0 6 -6 12q-85 85 -236 185q-125 83 -143 83q-2 0 -2 -1l-29 -27l-96 90q-14 14 -14 51q0 74 47 103q266 161 670 284l-41 -161
q-453 -131 -449 -177q0 -11 80 -59q107 -65 190 -129q135 -104 236 -225q8 -10 -4 -39h53v-250zM620 -537l-71 -125l-168 96l75 125zM673 -315l-81 -137l-181 109l-72 -117l-184 110l88 136l181 -109l71 113z" />
    <glyph glyph-name="u063c.final.kehehWith3DotsBelow" horiz-adv-x="1245" 
d="M1290 0h-131l-39 27q-22 -5 -141 -21q-267 -35 -496 -35q-273 0 -350 58q-113 84 -113 215q0 75 35 147q31 63 45 60q9 -3 13 -45q4 -54 18 -82q23 -47 78 -64q114 -35 481 -35q154 0 279 13q51 5 51 22q0 6 -6 12q-80 81 -236 183q-139 91 -145 84l-29 -27l-94 90
q-14 14 -14 53q0 73 45 101q269 164 669 284l-41 -161q-453 -132 -448 -177q1 -11 80 -59q106 -65 190 -129q136 -103 236 -225q4 -5 4 -13q0 -11 -6 -26h65v-250zM861 -556l-71 -125l-168 96l75 125zM914 -334l-81 -137l-181 109l-72 -117l-184 110l88 136l181 -109l71 113
z" />
    <glyph glyph-name="u063d.farsiYehWithInvertedV" unicode="&#xe03d;" horiz-adv-x="1268" 
d="M1257 684q0 -74 -75 -188q-52 65 -90 69q-13 2 -26 2q-110 0 -234.5 -95.5t-114.5 -139.5q3 -14 231 -81q222 -65 215 -99l-43 -209q-3 -16 -114 -97q-131 -94 -271 -157q-185 -84 -334 -84q-158 0 -268 96q-125 110 -125 301q0 128 55 279q46 123 109 217q52 77 73 77
q3 0 6 -2t3 -8q0 5 -75 -153t-75 -258q0 -93 48 -168q88 -142 305 -142q159 0 356 72q174 64 170 84q-2 11 -176 72q-182 63 -211 94q-12 13 -12 39q0 97 122 253q102 130 203 206q132 97 246 97q14 0 29 -1q73 -9 73 -76zM645 761l-214 144l-210 -144l-60 1l216 234
q22 22 54 22q33 0 55 -22l218 -235h-59z" />
    <glyph glyph-name="u063d.initial.farsiYehWithInvertedV" 
d="M715 143q0 -94 -29 -131q-7 -9 -133 -18q-117 -8 -166 -8q-57 0 -171 7t-171 7h-47l2 250h45q54 0 161 -8.5t161 -8.5q153 0 165 19q5 8 5 18q0 72 -127 224q-5 9 64 108q68 96 73 96q8 0 51 -73q48 -84 68 -160q49 -192 49 -322zM569 898l-214 144l-210 -144l-60 1
l216 234q22 22 54 22q33 0 55 -22l218 -235h-59z" />
    <glyph glyph-name="u063d.medial.farsiYehWithInvertedV" 
d="M768 0h-115q-84 0 -172 -8t-92 -8q-57 0 -172 8t-172 8h-47l2 250h45q54 0 161 -8.5t161 -8.5q153 0 165 19q5 8 5 18q0 72 -127 224q-5 9 64 108q68 96 73 96q8 0 51 -73q48 -83 68 -160q39 -152 39 -215h63v-250zM596 898l-214 144l-210 -144l-60 1l216 234
q22 22 54 22q33 0 55 -22l218 -235h-59z" />
    <glyph glyph-name="u063d.final.farsiYehWithInvertedV" horiz-adv-x="1178" 
d="M1223 0h-78q-42 0 -125 9t-125 9q-96 0 -104 -30q-7 -23 164 -92q158 -65 158 -106q0 -4 -1 -7l-53 -156q-23 -67 -211 -143q-219 -88 -451 -86q-175 2 -279 90q-112 97 -104 268q6 109 58 232q43 102 96 174q41 56 56 56q4 -1 5.5 -3t1.5 -8q0 -1 -65.5 -124t-65.5 -202
q0 -47 21 -92q76 -166 411 -166q77 0 188 16q154 23 157 60q0 5 -147.5 72t-145.5 96q4 51 43 143q46 110 110 178q58 62 379 62h107v-250zM627 450l-214 144l-210 -144l-60 1l216 234q22 22 54 22q33 0 55 -22l218 -235h-59z" />
    <glyph glyph-name="u063e.farsiYehWith2DotsAbove" unicode="&#xe03e;" horiz-adv-x="1268" 
d="M1257 684q0 -74 -75 -188q-52 65 -90 69q-13 2 -26 2q-110 0 -234.5 -95.5t-114.5 -139.5q3 -14 231 -81q222 -65 215 -99l-43 -209q-3 -16 -114 -97q-131 -94 -271 -157q-185 -84 -334 -84q-158 0 -268 96q-125 110 -125 301q0 128 55 279q46 123 109 217q52 77 73 77
q3 0 6 -2t3 -8q0 5 -75 -153t-75 -258q0 -93 48 -168q88 -142 305 -142q159 0 356 72q174 64 170 84q-2 11 -176 72q-182 63 -211 94q-12 13 -12 39q0 97 122 253q102 130 203 206q132 97 246 97q14 0 29 -1q73 -9 73 -76zM686 892l-111 -131l-145 123l-103 -123l-149 127
l110 131l144 -118l102 121z" />
    <glyph glyph-name="u063e.initial.farsiYehWith2DotsAbove" 
d="M715 143q0 -94 -29 -131q-7 -9 -133 -18q-117 -8 -166 -8q-57 0 -171 7t-171 7h-47l2 250h45q54 0 161 -8.5t161 -8.5q153 0 165 19q5 8 5 18q0 72 -127 224q-5 9 64 108q68 96 73 96q8 0 51 -73q48 -84 68 -160q49 -192 49 -322zM610 1029l-111 -131l-145 123l-103 -123
l-149 127l110 131l144 -118l102 121z" />
    <glyph glyph-name="u063e.medial.farsiYehWith2DotsAbove" 
d="M768 0h-115q-84 0 -172 -8t-92 -8q-57 0 -172 8t-172 8h-47l2 250h45q54 0 161 -8.5t161 -8.5q153 0 165 19q5 8 5 18q0 72 -127 224q-5 9 64 108q68 96 73 96q8 0 51 -73q48 -83 68 -160q39 -152 39 -215h63v-250zM637 1029l-111 -131l-145 123l-103 -123l-149 127
l110 131l144 -118l102 121z" />
    <glyph glyph-name="u063e.final.farsiYehWith2DotsAbove" horiz-adv-x="1178" 
d="M1223 0h-78q-42 0 -125 9t-125 9q-96 0 -104 -30q-7 -23 164 -92q158 -65 158 -106q0 -4 -1 -7l-53 -156q-23 -67 -211 -143q-219 -88 -451 -86q-175 2 -279 90q-112 97 -104 268q6 109 58 232q43 102 96 174q41 56 56 56q4 -1 5.5 -3t1.5 -8q0 -1 -65.5 -124t-65.5 -202
q0 -47 21 -92q76 -166 411 -166q77 0 188 16q154 23 157 60q0 5 -147.5 72t-145.5 96q4 51 43 143q46 110 110 178q58 62 379 62h107v-250zM668 581l-111 -131l-145 123l-103 -123l-149 127l110 131l144 -118l102 121z" />
    <glyph glyph-name="u063f.farsiYehWith3DotsAbove" unicode="&#xe03f;" horiz-adv-x="1268" 
d="M1257 684q0 -74 -75 -188q-52 65 -90 69q-13 2 -26 2q-110 0 -234.5 -95.5t-114.5 -139.5q3 -14 231 -81q222 -65 215 -99l-43 -209q-3 -16 -114 -97q-131 -94 -271 -157q-185 -84 -334 -84q-158 0 -268 96q-125 110 -125 301q0 128 55 279q46 123 109 217q52 77 73 77
q3 0 6 -2t3 -8q0 5 -75 -153t-75 -258q0 -93 48 -168q88 -142 305 -142q159 0 356 72q174 64 170 84q-2 11 -176 72q-182 63 -211 94q-12 13 -12 39q0 97 122 253q102 130 203 206q132 97 246 97q14 0 29 -1q73 -9 73 -76zM478 1134l-71 -125l-168 96l75 125zM691 906
l-81 -137l-181 109l-72 -117l-184 110l88 136l181 -109l71 113z" />
    <glyph glyph-name="u063f.initial.farsiYehWith3DotsAbove" 
d="M715 143q0 -94 -29 -131q-7 -9 -133 -18q-117 -8 -166 -8q-57 0 -171 7t-171 7h-47l2 250h45q54 0 161 -8.5t161 -8.5q153 0 165 19q5 8 5 18q0 72 -127 224q-5 9 64 108q68 96 73 96q8 0 51 -73q48 -84 68 -160q49 -192 49 -322zM402 1171l-71 -125l-168 96l75 125z
M615 943l-81 -137l-181 109l-72 -117l-184 110l88 136l181 -109l71 113z" />
    <glyph glyph-name="u063f.medial.farsiYehWith3DotsAbove" 
d="M768 0h-115q-84 0 -172 -8t-92 -8q-57 0 -172 8t-172 8h-47l2 250h45q54 0 161 -8.5t161 -8.5q153 0 165 19q5 8 5 18q0 72 -127 224q-5 9 64 108q68 96 73 96q8 0 51 -73q48 -83 68 -160q39 -152 39 -215h63v-250zM429 1171l-71 -125l-168 96l75 125zM642 943l-81 -137
l-181 109l-72 -117l-184 110l88 136l181 -109l71 113z" />
    <glyph glyph-name="u063f.final.farsiYehWith3DotsAbove" horiz-adv-x="1178" 
d="M1223 0h-78q-42 0 -125 9t-125 9q-96 0 -104 -30q-7 -23 164 -92q158 -65 158 -106q0 -4 -1 -7l-53 -156q-23 -67 -211 -143q-219 -88 -451 -86q-175 2 -279 90q-112 97 -104 268q6 109 58 232q43 102 96 174q41 56 56 56q4 -1 5.5 -3t1.5 -8q0 -1 -65.5 -124t-65.5 -202
q0 -47 21 -92q76 -166 411 -166q77 0 188 16q154 23 157 60q0 5 -147.5 72t-145.5 96q4 51 43 143q46 110 110 178q58 62 379 62h107v-250zM460 823l-71 -125l-168 96l75 125zM673 595l-81 -137l-181 109l-72 -117l-184 110l88 136l181 -109l71 113z" />
    <glyph glyph-name="u0641.feh" unicode="&#xe041;" horiz-adv-x="1493" 
d="M1350 1147l-39 -168l-209 49l39 166zM1489 354q0 -265 -90 -329q-53 -38 -277 -48l-469 -20q-47 -2 -118 -2q-225 0 -343 57q-165 79 -165 277q0 100 41 213q35 98 49 94v-123q12 -133 92 -194q119 -93 416 -93q50 0 108 2l406 15q114 4 114 26q0 13 -28 27
q-41 19 -95 45l-81 45q-101 55 -109 127q-10 89 121 246q126 151 176 145q110 -12 184 -168q58 -120 64 -219q4 -66 4 -123zM1368 424q0 53 -55 155q-58 109 -103 119q-34 9 -104 -45q-59 -45 -59 -64q0 -3 2 -5q32 -43 174 -117q116 -61 137 -61q3 0 5.5 3t2.5 15z" />
    <glyph glyph-name="u0641.initial.feh" 
d="M588 1130l-45 -165l-205 55l45 168zM713 424q0 -202 -4 -250q-12 -135 -60 -154q-70 -27 -266 -38q-40 -3 -176.5 7.5t-161.5 10.5h-45v250h45q59 0 178.5 -15.5t179.5 -15.5q55 0 74 10q4 3 4 4q-19 9 -127 68l-82 45q-100 55 -108 127q-10 89 121 246q126 151 176 145
q114 -14 188 -174q64 -136 64 -266zM592 424q0 53 -55 155q-58 109 -103 119q-35 9 -104 -45q-59 -45 -59 -64q0 -3 1 -5q33 -43 174 -117q117 -61 138 -61q3 0 5.5 3t2.5 15z" />
    <glyph glyph-name="u0641.medial.feh" 
d="M588 1130l-45 -165l-205 55l45 168zM770 0h-63l-45 16q-125 -25 -279 -34q-39 -3 -178 8q-135 10 -160 10h-45v250h45q59 0 178.5 -15.5t179.5 -15.5q55 0 74 10q4 3 4 4q-19 9 -127 68l-82 45q-100 55 -108 127q-10 89 121 246q126 151 176 145q109 -12 184 -168
q59 -122 64 -219q6 -136 6 -227h55v-250zM592 424q0 53 -55 155q-58 109 -103 119q-35 9 -104 -45q-59 -45 -59 -64q0 -3 1 -5q33 -43 174 -117q117 -61 138 -61q3 0 5.5 3t2.5 15z" />
    <glyph glyph-name="u0641.final.feh" horiz-adv-x="1493" 
d="M1350 1147l-39 -168l-209 49l39 166zM1538 0h-121l-33 20q4 0 11 -4q-5 -2 -41 -12q-72 -20 -232 -27l-469 -20q-47 -2 -118 -2q-225 0 -343 57q-165 79 -165 277q0 100 41 213q35 98 49 94v-123q12 -133 92 -194q119 -93 416 -93q50 0 108 2l406 15q114 4 114 26
q0 13 -28 27q-41 19 -95 45l-81 45q-101 55 -109 127q-10 89 121 246q126 151 176 145q110 -12 184 -168q64 -132 64 -219v-227h53v-250zM1368 424q0 53 -55 155q-58 109 -103 119q-34 9 -104 -45q-59 -45 -59 -64q0 -3 2 -5q32 -43 174 -117q116 -61 137 -61q3 0 5.5 3
t2.5 15z" />
    <glyph glyph-name="u0642.qaf" unicode="&#xe042;" horiz-adv-x="1178" 
d="M1153 119q0 -119 -23 -242q-28 -157 -192 -301q-195 -171 -457 -184q-192 -10 -313 98q-133 119 -133 334q0 117 39 250q32 109 73 188q35 65 47 65q9 0 9 -18q0 -17 -25 -76q-31 -74 -43 -127q-21 -94 -14 -192q9 -143 123 -218q99 -65 250 -65q199 0 438 140
q102 59 102 77v136q-84 -13 -147 -13q-320 0 -320 228q0 132 111 331q98 177 207 177q140 0 215 -239q53 -170 53 -349zM983 238q0 35 -49 102q-56 76 -119 82q-40 4 -80.5 -31t-40.5 -76q0 -13 8 -22q69 -78 197 -78q48 0 80 14q4 2 4 9zM973 1040l-111 -131l-145 123
l-103 -123l-149 127l110 131l144 -118l102 121z" />
    <glyph glyph-name="u0642.initial.qaf" 
d="M713 424q0 -202 -4 -250q-12 -135 -60 -154q-70 -27 -266 -38q-40 -3 -176.5 7.5t-161.5 10.5h-45v250h45q59 0 178.5 -15.5t179.5 -15.5q55 0 74 10q4 3 4 4q-19 9 -127 68l-82 45q-100 55 -108 127q-10 89 121 246q126 151 176 145q114 -14 188 -174q64 -136 64 -266z
M592 424q0 53 -55 155q-58 109 -103 119q-35 9 -104 -45q-59 -45 -59 -64q0 -3 1 -5q33 -43 174 -117q117 -61 138 -61q3 0 5.5 3t2.5 15zM726 1058l-111 -131l-145 123l-103 -123l-149 127l110 131l144 -118l102 121z" />
    <glyph glyph-name="u0642.medial.qaf" 
d="M770 0h-63l-45 16q-125 -25 -279 -34q-39 -3 -178 8q-135 10 -160 10h-45v250h45q59 0 178.5 -15.5t179.5 -15.5q55 0 74 10q4 3 4 4q-19 9 -127 68l-82 45q-100 55 -108 127q-10 89 121 246q126 151 176 145q109 -12 184 -168q59 -122 64 -219q6 -136 6 -227h55v-250z
M592 424q0 53 -55 155q-58 109 -103 119q-35 9 -104 -45q-59 -45 -59 -64q0 -3 1 -5q33 -43 174 -117q117 -61 138 -61q3 0 5.5 3t2.5 15zM712 1061l-111 -131l-145 123l-103 -123l-149 127l110 131l144 -118l102 121z" />
    <glyph glyph-name="u0642.final.qaf" horiz-adv-x="1178" 
d="M1223 0h-74q-2 -33 -19 -123q-27 -156 -192 -301q-195 -171 -457 -184q-192 -10 -313 98q-133 119 -133 334q0 117 39 250q32 109 73 188q35 65 47 65q9 0 9 -18q0 -17 -25 -76q-31 -74 -43 -127q-21 -94 -14 -192q9 -143 123 -218q99 -65 250 -65q199 0 438 140
q102 59 102 77v136q-67 -15 -149 -15q-318 0 -318 230q0 133 111 331q99 179 201 179q105 0 190 -179q72 -149 78 -280h76v-250zM983 238q0 35 -49 102q-56 76 -119 82q-40 4 -80.5 -31t-40.5 -76q0 -13 8 -22q69 -78 197 -78q48 0 80 14q4 2 4 9zM969 1043l-111 -131
l-145 123l-103 -123l-149 127l110 131l144 -118l102 121z" />
    <glyph glyph-name="u0643.kaf" unicode="&#xe043;" horiz-adv-x="1018" 
d="M651 666q0 -86 -125 -179q-22 -22 -145 -22q-33 0 -45 6q197 76 199 104q0 9 -64 13q-70 4 -78 22q-4 10 -4 21q0 59 84 146q71 73 94 73q8 0 8 -8q0 -5 -36.5 -56t-34.5 -84q2 -9 67 -13q71 -3 75.5 -6t4.5 -17zM1010 223q3 -186 -27 -200q-53 -25 -160 -35
q-233 -23 -352 -23q-250 0 -346 60q-113 69 -113 196q0 105 72 225q66 111 82 101q6 -4 6 -15q0 -20 -14.5 -84t-14.5 -100q0 -133 289 -133q38 0 76 2q262 14 348 47q-8 126 -25 359q-19 223 -40 413l200 131z" />
    <glyph glyph-name="u0643.initial.kaf" horiz-adv-x="815" 
d="M813 268q0 -58 -16 -135q-19 -90 -39 -94q-223 -49 -459 -49q-42 0 -127 5t-127 5h-45v250h45q-77 0 97 -10.5t231 -10.5q90 0 180 9q51 4 51 22q0 6 -6 12q-85 85 -236 185q-125 83 -143 83q-2 0 -2 -1l-29 -27l-96 90q-14 14 -14 51q0 74 47 103q266 161 670 284
l-41 -161q-453 -131 -449 -177q0 -13 80 -61q120 -72 190 -127q135 -103 236 -225q2 -4 2 -21z" />
    <glyph glyph-name="u0643.medial.kaf" horiz-adv-x="815" 
d="M860 0h-119l-36 27q-35 -7 -142 -21q-129 -16 -260 -16q-43 0 -129 5t-129 5h-45v250h45q-77 0 97 -10.5t231 -10.5q90 0 180 9q51 4 51 22q0 6 -6 12q-85 85 -236 185q-125 83 -143 83q-2 0 -2 -1l-29 -27l-96 90q-14 14 -14 51q0 74 47 103q266 161 670 284l-41 -161
q-453 -131 -449 -177q0 -11 80 -59q107 -65 190 -129q135 -104 236 -225q8 -10 -4 -39h53v-250z" />
    <glyph glyph-name="u0643.final.kaf" horiz-adv-x="1018" 
d="M651 666q0 -86 -125 -179q-22 -22 -145 -22q-33 0 -45 6q197 76 199 104q0 9 -64 13q-70 4 -78 22q-4 10 -4 21q0 59 84 146q71 73 94 73q8 0 8 -8q0 -5 -36.5 -56t-34.5 -84q2 -9 67 -13q71 -3 75.5 -6t4.5 -17zM1063 0h-96l-17 12q-73 -28 -346 -43q-77 -4 -133 -4
q-250 0 -346 60q-113 69 -113 196q0 105 72 225q66 111 82 101q6 -4 6 -15q0 -20 -14.5 -84t-14.5 -100q0 -133 289 -133q38 0 76 2q262 14 348 47q-8 126 -25 359q-19 223 -40 413l200 131l19 -917h53v-250z" />
    <glyph glyph-name="u0644.lam" unicode="&#xe044;" horiz-adv-x="928" 
d="M905 340l-2 -363q-1 -160 -192 -278q-169 -105 -340 -105q-178 0 -277 117q-74 87 -74 226q0 146 74 305q62 132 86 132q2 0 4 -1q5 -5 -24 -101q-35 -115 -35 -192q0 -176 162 -223q55 -17 116 -17q113 0 236 49q102 41 123 72l-53 1049l180 155z" />
    <glyph glyph-name="u0644.initial.lam" horiz-adv-x="565" 
d="M547 250q8 -218 -8 -230q-30 -20 -148 -20h-391v250h387q10 0 10 31q0 3 -22 245q-14 164 -43 500l180 139z" />
    <glyph glyph-name="u0644.medial.lam" horiz-adv-x="565" 
d="M610 0h-610v250h387q10 0 10 31q0 3 -22 245q-14 164 -43 500l180 139l35 -915h63v-250z" />
    <glyph glyph-name="u0644.final.lam" horiz-adv-x="928" 
d="M973 0h-70v-23q0 -160 -192 -278q-170 -105 -340 -105q-178 0 -277 117q-74 87 -74 226q0 146 74 305q62 132 86 132q2 0 4 -1q5 -5 -24 -101q-35 -115 -35 -192q0 -176 162 -223q55 -17 116 -17q113 0 236 49q102 41 123 72l-53 1049l180 155l16 -915h68v-250z" />
    <glyph glyph-name="u0645.meem" unicode="&#xe045;" horiz-adv-x="770" 
d="M758 250q0 -29 -38 -132q-39 -106 -57 -112t-69 -6q-58 0 -173 7t-173 7q-127 0 -135 -30q-4 -14 34 -181q44 -187 48 -256q6 -121 -29 -227q-28 -84 -45 -80q-4 2 -6 74q-4 93 -15 174q-25 187 -88 430q-4 16 -4 35q0 64 39 156q42 98 100 116q20 6 170 6h54q96 0 96 13
q0 30 -68 108.5t-98 79.5q-52 3 -127 -44.5t-78 -47.5q-10 0 -10 8q0 32 152 225q60 78 149 78q58 0 94 -35q26 -25 94 -145l80 -141q31 -47 68 -66q16 -6 35 -14z" />
    <glyph glyph-name="u0645.initial.meem" horiz-adv-x="905" 
d="M895 209q0 -23 -2 -33q-38 -178 -246 -178q-43 0 -92 6q-88 11 -246 107q-13 0 -35 -37q-25 -43 -43 -51q-48 -23 -139 -23h-92v250h63q242 0 267 31q36 72 114 215q110 186 238 186q24 0 45 -6q58 -17 116 -211q52 -170 52 -256zM729 242q0 50 -31 116q-43 96 -113 96
q-44 0 -105.5 -48.5t-61.5 -90.5q0 -32 120 -63q101 -25 152 -25q21 0 37 2q2 4 2 13z" />
    <glyph glyph-name="u0645.medial.meem" horiz-adv-x="905" 
d="M950 0h-127l-45 20q-67 -22 -129 -22q-44 0 -94 6q-88 11 -246 107q-13 0 -35 -37q-25 -43 -43 -51q-48 -23 -139 -23h-92v250h63q242 0 267 31q36 72 114 215q110 186 238 186q24 0 45 -6q55 -16 117 -219q50 -166 50 -199q0 -6 -1 -8h57v-250zM729 242q0 50 -31 116
q-43 96 -113 96q-44 0 -105.5 -48.5t-61.5 -90.5q0 -32 120 -63q101 -25 152 -25q21 0 37 2q2 4 2 13z" />
    <glyph glyph-name="u0645.final.meem" horiz-adv-x="770" 
d="M815 0h-102l-25 12q-14 0 -45.5 -6t-48.5 -6q-58 0 -173 7t-173 7q-127 0 -135 -30q-4 -14 34 -181q44 -187 48 -256q6 -121 -29 -227q-28 -84 -45 -80q-4 2 -6 74q-4 93 -15 174q-25 187 -88 430q-4 16 -4 35q0 64 39 156q42 98 100 116q20 6 170 6h54q96 0 96 13
q0 30 -68 108.5t-98 79.5q-52 3 -127 -44.5t-78 -47.5q-10 0 -10 8q0 32 152 225q60 78 149 78q58 0 94 -35q26 -25 94 -145l80 -141q31 -47 68 -66q16 -6 35 -14h57v-250z" />
    <glyph glyph-name="u0646.noon" unicode="&#xe046;" horiz-adv-x="995" 
d="M662 827l-111 -145l-172 119l113 149zM985 117q0 -141 -35 -267q-36 -131 -100 -178q-74 -53 -209 -104q-169 -64 -299 -64q-245 0 -311 213q-27 86 -27 179q0 128 51 270q40 111 99 190q46 64 64 64q3 -1 6 -2.5t3 -9.5q0 -1 -70.5 -162.5t-70.5 -257.5q0 -126 76 -193
q73 -63 200 -63q110 0 267 43q63 17 143 55q74 35 76 43q4 29 4 61q0 117 -51 250q-43 111 -56 115l134 203q106 -158 106 -385z" />
    <glyph glyph-name="u0646.initial.noon" 
d="M715 143q0 -94 -29 -131q-7 -9 -133 -18q-117 -8 -166 -8q-57 0 -171 7t-171 7h-47l2 250h45q54 0 161 -8.5t161 -8.5q153 0 165 19q5 8 5 18q0 72 -127 224q-5 9 64 108q68 96 73 96q8 0 51 -73q48 -84 68 -160q49 -192 49 -322zM467 1088l-84 -185l-217 90l78 185z" />
    <glyph glyph-name="u0646.medial.noon" 
d="M768 0h-115q-84 0 -172 -8t-92 -8q-57 0 -172 8t-172 8h-47l2 250h45q54 0 161 -8.5t161 -8.5q153 0 165 19q5 8 5 18q0 72 -127 224q-5 9 64 108q68 96 73 96q8 0 51 -73q48 -83 68 -160q39 -152 39 -215h63v-250zM467 1088l-84 -185l-217 90l78 185z" />
    <glyph glyph-name="u0646.final.noon" horiz-adv-x="995" 
d="M1040 0h-63q0 -78 -35 -178q-38 -111 -92 -150q-75 -54 -209 -104q-169 -64 -301 -64q-243 0 -309 213q-27 86 -27 179q0 128 51 270q40 111 99 190q46 64 64 64q3 -1 6 -2.5t3 -9.5q0 -1 -70.5 -162.5t-70.5 -257.5q0 -126 76 -193q73 -63 200 -63q110 0 267 43
q63 17 143 55q74 35 76 43q4 29 4 61q0 117 -51 250q-43 111 -56 115l134 203q36 -62 88 -199q2 -10 8 -53h65v-250zM671 861l-84 -185l-217 90l78 185z" />
    <glyph glyph-name="u0647.heh" unicode="&#xe047;" horiz-adv-x="770" 
d="M754 383q6 -62 -41 -168q-41 -92 -74 -121q-51 -45 -160 -94q-143 -66 -252 -66q-82 0 -134 44.5t-52 125.5q0 220 356 603q38 -49 58 -64q57 -42 172 -127q122 -91 127 -133zM563 240q6 16 -268 217q-19 -7 -68 -80q-55 -84 -55 -131q0 -16 8 -27q40 -53 142 -53
q48 0 131 20q100 24 110 54z" />
    <glyph glyph-name="u0647.initial.heh" horiz-adv-x="1085" 
d="M1034 31q-38 -98 -74 -98q-5 0 -10 1l-375 146q-35 -25 -186 -64q-63 -16 -225 -16h-164v250h293q0 100 39 196q33 84 121 152q28 21 86 64q3 9 -25 37q-32 33 -35 40q-10 35 23 82l76 111q5 8 18 8q60 0 184 -106q132 -113 212 -255q91 -160 91 -316q0 -108 -49 -232z
M963 152q10 122 -35 227q-60 139 -178 199q6 -131 -15 -199q-7 -25 -41 -78q-25 -39 -22 -47q2 -6 47 -18l50 -14q21 -6 30 -9q151 -55 164 -61zM670 430q0 130 -60 123q-119 -14 -188 -119q-45 -68 -45 -108q0 -8 2 -15q4 -15 82 -28q60 -11 127 -11q30 0 37 4
q45 37 45 154z" />
    <glyph glyph-name="u0647.medial.heh" horiz-adv-x="928" 
d="M973 0h-225q-35 0 -41 -16q-2 -2 9 -30t11 -34q9 -101 -86 -375q-20 -57 -80 -57q-64 0 -142 60q-67 51 -110 114q-90 134 -98 338h-211v250h252q18 61 47 133q61 151 129 238q155 197 195 194q21 -1 51 -104q33 -115 33 -232q0 -33 -5 -71q-2 -23 -37.5 -87t-35.5 -77
q0 -8 9 -8q12 0 43 6q46 8 71 8h221v-250zM590 322q2 3 2 14q0 27 -11 106q-18 117 -51 117q-26 0 -94 -98q-73 -106 -98 -207q-2 -6 33 -6q60 0 123 16q77 20 96 58zM637 -229q0 115 -115 188q-73 47 -152 47q-22 0 -44 -4q0 -100 108 -215q64 -68 150 -68q34 0 43.5 9
t9.5 43z" />
    <glyph glyph-name="u0647.final.heh" 
d="M770 0h-94q-79 0 -115.5 33.5t-46.5 111.5l-14 111q-2 17 -17 37q-16 2 -43 -37l-32 -80q-27 -65 -84 -65q-67 0 -250 79q-51 23 -51 74q0 39 34 115l58 125q12 27 41 65q57 78 293 127l-11 123l142 133l16 -635q3 -67 33 -67h141v-250zM481 375q-10 125 -22 223
q-4 12 -17 12q-10 0 -166 -65q-24 -11 -124 -96q9 -8 147 -80q51 -27 117 -27q68 0 65 33z" />
    <glyph glyph-name="u0648.waw" unicode="&#xe048;" horiz-adv-x="950" 
d="M946 178q0 -90 -22 -180q-54 -216 -164 -379q-148 -220 -338 -225q-108 -3 -236 80q-98 64 -182 159q-65 74 -65 91q1 3 2 4q4 4 104 -41q122 -56 227 -56q21 0 54 4q186 24 325 150q100 90 148 201q-11 -2 -33 -2q-114 0 -234 39q-155 50 -157 133q-6 219 98 399
q94 162 189 162q122 0 210 -219q74 -182 74 -320zM791 233q1 3 1 7q0 28 -61 108q-75 100 -143 103q-29 1 -67.5 -63.5t-26.5 -78.5q40 -47 170 -69q120 -21 127 -7z" />
    <glyph glyph-name="u0648.final.waw" horiz-adv-x="950" 
d="M995 0h-69q-5 -10 -13 -37q-54 -198 -155 -348q-148 -217 -336 -221q-110 -2 -236 80q-98 64 -182 159q-65 74 -65 91q1 3 2 4q4 4 104 -41q122 -56 227 -56q21 0 54 4q186 24 325 150q100 90 148 201q-11 -2 -33 -2q-114 0 -234 39q-155 50 -157 133q-6 219 98 399
q94 162 189 162q77 0 153 -113q62 -91 103 -215q37 -113 24 -139h53v-250zM791 233q1 3 1 7q0 28 -61 108q-75 100 -143 103q-29 1 -67.5 -63.5t-26.5 -78.5q40 -47 170 -69q120 -21 127 -7z" />
    <glyph glyph-name="u0649.alefMaksura" unicode="&#xe049;" horiz-adv-x="1268" 
d="M1257 684q0 -74 -75 -188q-52 65 -90 69q-13 2 -26 2q-110 0 -234.5 -95.5t-114.5 -139.5q3 -14 231 -81q222 -65 215 -99l-43 -209q-3 -16 -114 -97q-131 -94 -271 -157q-185 -84 -334 -84q-158 0 -268 96q-125 110 -125 301q0 128 55 279q46 123 109 217q52 77 73 77
q3 0 6 -2t3 -8q0 5 -75 -153t-75 -258q0 -93 48 -168q88 -142 305 -142q159 0 356 72q174 64 170 84q-2 11 -176 72q-182 63 -211 94q-12 13 -12 39q0 97 122 253q102 130 203 206q132 97 246 97q14 0 29 -1q73 -9 73 -76z" />
    <glyph glyph-name="u0649.initial.alefMaksura" 
d="M715 143q0 -94 -29 -131q-7 -9 -133 -18q-117 -8 -166 -8q-57 0 -171 7t-171 7h-47l2 250h45q54 0 161 -8.5t161 -8.5q153 0 165 19q5 8 5 18q0 72 -127 224q-5 9 64 108q68 96 73 96q8 0 51 -73q48 -84 68 -160q49 -192 49 -322z" />
    <glyph glyph-name="u0649.medial.alefMaksura" 
d="M768 0h-115q-84 0 -172 -8t-92 -8q-57 0 -172 8t-172 8h-47l2 250h45q54 0 161 -8.5t161 -8.5q153 0 165 19q5 8 5 18q0 72 -127 224q-5 9 64 108q68 96 73 96q8 0 51 -73q48 -83 68 -160q39 -152 39 -215h63v-250z" />
    <glyph glyph-name="u0649.final.alefMaksura" horiz-adv-x="1178" 
d="M1223 0h-78q-42 0 -125 9t-125 9q-96 0 -104 -30q-7 -23 164 -92q158 -65 158 -106q0 -4 -1 -7l-53 -156q-23 -67 -211 -143q-219 -88 -451 -86q-175 2 -279 90q-112 97 -104 268q6 109 58 232q43 102 96 174q41 56 56 56q4 -1 5.5 -3t1.5 -8q0 -1 -65.5 -124t-65.5 -202
q0 -47 21 -92q76 -166 411 -166q77 0 188 16q154 23 157 60q0 5 -147.5 72t-145.5 96q4 51 43 143q46 110 110 178q58 62 379 62h107v-250z" />
    </font>
</defs>
</svg>
